<?xml version="1.0" encoding="utf-8"?>
<!-- Generator: Adobe Illustrator 24.0.0, SVG Export Plug-In . SVG Version: 6.00 Build 0)  -->
<svg version="1.1" id="Layer_1" xmlns="http://www.w3.org/2000/svg" xmlns:xlink="http://www.w3.org/1999/xlink" x="0px" y="0px"
	 viewBox="0 0 587.5 96.8" style="enable-background:new 0 0 587.5 96.8;" xml:space="preserve">
<style type="text/css">
	.st0{fill:#7F1518;}
	.st1{fill:#006838;}
	.st2{fill:#5A712D;}
	.st3{fill:#1C204E;}
	.st4{fill:#030306;}
	.st5{fill:#525E2C;}
</style>
<title>logo</title>
<path class="st0" d="M137.9,33.2c0,5.8-2.5,9.9-7.4,12.3c-3.7,1.7-9,2.6-15.8,2.6c-6.7,0-12.1-1-16.1-3.1c-5.2-2.6-7.7-6.7-7.7-12.2
	V4.2h11.9v27.2c0,3.4,1.3,5.9,4,7.5c2.2,1.2,4.7,1.8,7.2,1.7c4.9,0,8.3-0.9,10.1-2.7c1.6-1.5,2.4-3.8,2.4-6.9V4.2h11.5V33.2z"/>
<path class="st0" d="M158.3,48h-12.6V4.2h12.6V48z"/>
<path class="st0" d="M211.7,11.7h-17.6v36.5h-10.9V11.7h-17.3V4.2h45.8V11.7z"/>
<path class="st0" d="M266.8,34.4c0.1,3.7-1.4,7.2-4.1,9.7c-2.8,2.7-6.6,4.1-10.4,3.9h-33.4v-7.9h27.5c1.6,0.1,3.3-0.3,4.7-1.2
	c1.4-0.8,2.2-2.2,2.2-3.8c0-3.7-2.8-5.6-8.5-5.6h-13.9c-3.8,0.1-7.5-1.1-10.5-3.4c-2.9-2-4.5-5.3-4.5-8.8c-0.1-3.7,1.5-7.2,4.4-9.5
	c2.9-2.4,6.8-3.7,11.6-3.7h31.9v7.5h-28.1c-1.4,0-2.7,0.6-3.8,1.5c-1.2,0.8-1.9,2.1-1.9,3.5c0,1.5,0.7,2.9,1.8,3.8
	c1.3,1,2.9,1.6,4.5,1.5h15.3c4.8,0,8.5,1.1,11.2,3.4C265.4,27.6,266.9,30.9,266.8,34.4z"/>
<g>
	<path d="M98.2,64h1.1c0.6-0.5,1.1-1.1,1.5-1.8c0.2-0.3,0.4-0.6,0.5-1c0-0.2-0.2-0.3-0.7-0.3c-0.3,0-0.8,0.1-1.5,0.1
		c-0.7,0.1-1.5,0.2-2.1,0.3c-0.5,0.1-1,0.2-1.5,0.3c-0.4,0.1-0.6,0.2-0.8,0.2c-0.1,0-0.2,0.1-0.3,0.1h1c0.4,0,0.6,0,0.6,0.1
		c0,0.1-0.1,0.1-0.4,0.1l-0.8,0.2c-0.2,0-0.5,0.1-0.7,0.2c-0.1,0-0.3,0.1-0.4,0.1c-0.1,0-0.2,0-0.3-0.1c-0.1-0.1-0.1-0.2-0.1-0.3
		c0-0.2,0.1-0.4,0.2-0.5c0.2-0.3,0.4-0.6,0.6-0.8c0.3-0.3,0.6-0.5,0.9-0.6c0.1,0,0.6-0.1,1.3-0.3c0.7-0.1,1.6-0.2,2.5-0.4
		c0.8-0.1,1.7-0.2,2.5-0.2c0.4,0,0.8,0,1.1,0.2c0.3,0.1,0.4,0.3,0.4,0.6c0,0.2-0.1,0.3-0.2,0.5c-0.1,0.3-0.3,0.5-0.5,0.8
		c-0.2,0.3-0.5,0.7-0.8,1.1c-0.3,0.4-0.7,0.8-1.1,1.3h1.2l-1,1.1H100h-0.7c-0.6,0.6-1.3,1.2-2,1.7c-0.6,0.5-1.3,0.9-2,1.3
		c-0.4,0.3-0.8,0.4-1.2,0.5c-0.1,0-0.2,0-0.2,0c-0.1,0-0.1-0.1-0.1-0.2c0.1-0.2,0.2-0.4,0.3-0.5c0.3-0.3,0.6-0.6,0.9-0.8
		c0.4-0.2,0.9-0.4,1.4-0.4c0.2-0.2,0.4-0.3,0.5-0.4l0.6-0.6l0.6-0.6l-2.3,0.1c-0.2,0-0.3,0-0.5,0c-0.1,0-0.1-0.1-0.1-0.2
		c0.1-0.2,0.1-0.3,0.2-0.5c0-0.1,0.1-0.2,0.2-0.2c0.1,0,0.3-0.1,0.4-0.1l1.4-0.3C97.7,64,97.9,64,98.2,64z"/>
	<path d="M105.6,64.6c-0.7,0.7-1.3,1.3-1.7,1.6c-0.3,0.3-0.6,0.4-0.9,0.5c-0.2,0-0.4-0.1-0.5-0.2c-0.2-0.1-0.3-0.3-0.4-0.5
		c-0.1-0.3-0.2-0.7-0.1-1.1c0.1-0.1,0.1-0.3,0.2-0.4c0.1-0.2,0.3-0.3,0.4-0.5c0.2-0.2,0.4-0.4,0.6-0.6l0.4-0.3
		c0.1-0.1,0.2-0.1,0.3-0.2c0.2,0,0.3-0.1,0.5,0c0.2,0,0.3,0,0.5,0c0.1,0,0.2,0.1,0.2,0.1c0,0.1-0.1,0.3-0.2,0.4
		c-0.2,0.2-0.5,0.5-0.7,0.7c-0.4,0.3-0.7,0.6-1.1,0.8c-0.1,0.2-0.1,0.3-0.1,0.5c0,0.1,0.1,0.2,0.2,0.2c0,0,0,0,0.1,0
		c0.1,0,0.2-0.1,0.3-0.1c0.1-0.1,0.4-0.2,0.7-0.5l0.9-0.6c0.2-0.2,0.5-0.4,0.7-0.6c0.3-0.3,0.5-0.5,0.6-0.6c0.4-0.3,0.6-0.5,0.8-0.6
		c0.1-0.1,0.3-0.1,0.4-0.1c0.1,0,0.2,0,0.2,0.1c0.1,0.1,0.1,0.2,0.1,0.4c0,0.1,0,0.1,0,0.2c0,0.1-0.1,0.1-0.1,0.2l-0.4,0.4l-0.7,0.7
		c-0.1,0.2-0.3,0.3-0.4,0.5c-0.1,0.1-0.1,0.3-0.2,0.4c0,0.2,0.1,0.3,0.3,0.3c0.2,0,0.4-0.1,0.6-0.2c0.2-0.1,0.6-0.3,1-0.6v0.4
		l-1.3,0.9c-0.2,0.2-0.5,0.3-0.7,0.4c-0.2,0.1-0.4,0.1-0.6,0.1c-0.4,0-0.6-0.2-0.6-0.6c0-0.2,0.1-0.4,0.2-0.6
		C105.1,65.5,105.3,65.1,105.6,64.6z"/>
	<path d="M110.7,62h0.3c0.2-0.3,0.4-0.6,0.7-0.8c0.2-0.2,0.5-0.2,0.7-0.2c0.3,0,0.4,0,0.4,0.1c0,0.1-0.1,0.2-0.3,0.4
		c-0.2,0.2-0.3,0.3-0.5,0.5h0.5h0.3c-0.3,0.4-0.7,0.9-1.1,1.3h-0.4h-0.3h-0.4c-0.3,0.3-0.5,0.6-0.7,0.9c-0.2,0.2-0.3,0.5-0.4,0.7
		c-0.1,0.2-0.1,0.4-0.1,0.6c0,0.3,0.1,0.4,0.4,0.4c0.3,0,0.5-0.1,0.8-0.2c0.3-0.2,0.7-0.4,1.3-0.7v0.4c-1.4,1.1-2.4,1.7-3,1.7
		c-0.2,0-0.4-0.1-0.6-0.2c-0.1-0.1-0.2-0.3-0.2-0.5c0-0.2,0-0.3,0.1-0.5c0.1-0.2,0.2-0.5,0.4-0.9l-0.2,0.1l-0.2,0.1l-0.2,0.1
		l-0.2,0.1v-0.4c0.7-0.5,1.4-1.1,1.9-1.8h-0.4c-0.2,0-0.4,0-0.7,0h-0.2c0,0-0.1,0-0.1,0l0,0c0-0.2,0.2-0.4,0.3-0.6
		c0.1-0.2,0.3-0.3,0.5-0.5c0.2-0.1,0.3-0.2,0.5-0.2C110.1,62,110.4,62,110.7,62z"/>
	<path d="M115.5,64.6c-0.7,0.7-1.3,1.3-1.7,1.6c-0.3,0.3-0.6,0.4-0.9,0.5c-0.2,0-0.4-0.1-0.5-0.2c-0.2-0.1-0.3-0.3-0.4-0.5
		c-0.1-0.2-0.1-0.4-0.1-0.7c0-0.1,0-0.3,0.1-0.4c0.1-0.1,0.1-0.3,0.2-0.4c0.1-0.2,0.3-0.3,0.4-0.5c0.2-0.2,0.4-0.4,0.6-0.6l0.4-0.3
		c0.1-0.1,0.2-0.1,0.3-0.2c0.2,0,0.3-0.1,0.5,0c0.2,0,0.3,0,0.5,0c0.2,0,0.2,0.1,0.2,0.1c0,0.1-0.1,0.3-0.2,0.4
		c-0.2,0.2-0.5,0.5-0.7,0.7c-0.4,0.3-0.7,0.6-1.1,0.8c-0.1,0.2-0.1,0.3-0.1,0.5c0,0.1,0.1,0.2,0.2,0.2c0,0,0,0,0.1,0
		c0.1,0,0.2-0.1,0.3-0.1c0.1-0.1,0.4-0.2,0.7-0.5l0.9-0.6c0.2-0.2,0.5-0.4,0.7-0.6c0.2-0.2,0.4-0.4,0.6-0.6c0.4-0.3,0.6-0.5,0.8-0.6
		c0.1-0.1,0.3-0.1,0.4-0.1c0.1,0,0.2,0,0.2,0.1c0.1,0.1,0.1,0.2,0.1,0.4c0,0.1,0,0.1,0,0.2c0,0.1-0.1,0.1-0.1,0.2
		c-0.1,0.1-0.2,0.2-0.4,0.4l-0.7,0.7c-0.1,0.2-0.3,0.3-0.4,0.5c-0.1,0.1-0.1,0.3-0.2,0.4c0,0.2,0.1,0.3,0.3,0.3
		c0.2,0,0.4-0.1,0.6-0.2c0.2-0.1,0.6-0.3,1-0.6v0.4l-1.3,0.9c-0.2,0.2-0.5,0.3-0.7,0.4c-0.2,0.1-0.4,0.1-0.6,0.1
		c-0.4,0-0.6-0.2-0.6-0.6c0-0.2,0.1-0.4,0.2-0.6C115,65.5,115.2,65.1,115.5,64.6z"/>
	<path d="M117.8,65.5v-0.4c0.2-0.2,0.4-0.4,0.6-0.6c-0.1,0-0.2-0.1-0.4-0.2c-0.1-0.1-0.1-0.2-0.1-0.3c0-0.2,0.1-0.4,0.2-0.5
		c0.2-0.2,0.4-0.4,0.6-0.6c0.2-0.2,0.4-0.3,0.6-0.4c0.1,0,0.1,0,0.2,0c0.1,0,0.2,0,0.2,0.1c0,0.2-0.1,0.3-0.2,0.4
		c1-0.1,1.7-0.2,2-0.2c0.1,0,0.2,0,0.2,0c0.1,0.1,0.2,0.1,0.2,0.2c0.1,0.1,0.1,0.3,0.1,0.4c0,0.1-0.1,0.2-0.1,0.3
		c-0.2,0.1-0.3,0.3-0.5,0.4c-0.3,0.2-0.5,0.4-0.7,0.7c-0.1,0.2-0.2,0.4-0.3,0.6c0,0.2,0.1,0.3,0.4,0.3c0.6-0.1,1.1-0.4,1.6-0.7v0.4
		c-0.4,0.3-0.8,0.6-1,0.8c-0.3,0.2-0.5,0.3-0.8,0.5c-0.2,0.1-0.4,0.2-0.6,0.2c-0.2,0-0.4-0.1-0.5-0.2c-0.2-0.2-0.2-0.4-0.2-0.6
		c0-0.2,0.1-0.4,0.2-0.6c0.1-0.2,0.3-0.5,0.5-0.7c0.2-0.3,0.5-0.5,0.7-0.7l-0.5,0.1l-0.6,0.1l-0.5,0.1
		C118.8,64.7,118.4,65.1,117.8,65.5z"/>
	<path d="M123.6,65.2v0.2c0,0.2,0.1,0.4,0.2,0.5c0.2,0.1,0.4,0.2,0.6,0.2c0.3,0,0.5,0,0.8-0.1c0.3-0.1,0.5-0.2,0.8-0.4
		c0.3-0.1,0.6-0.3,1-0.6v0.4c-0.5,0.5-1,0.9-1.6,1.2c-0.5,0.3-1,0.4-1.5,0.4c-0.4,0-0.8-0.1-1.1-0.4c-0.3-0.3-0.4-0.7-0.4-1.1
		c0-0.4,0.1-0.8,0.4-1.1c0.3-0.4,0.8-0.8,1.2-1c0.3-0.2,0.7-0.4,1.1-0.6c0.3-0.1,0.7-0.2,1-0.2c0.2,0,0.4,0,0.6,0.1
		c0.1,0.1,0.2,0.2,0.2,0.4c0,0.3-0.1,0.5-0.4,0.7c-0.3,0.3-0.7,0.5-1.1,0.7C124.9,64.8,124.3,65,123.6,65.2z M123.7,64.9
		c0.4-0.1,0.8-0.3,1.2-0.5c0.3-0.2,0.5-0.3,0.7-0.6c0.1-0.1,0.2-0.2,0.2-0.4c0-0.1-0.1-0.1-0.2-0.1c-0.2,0-0.3,0.1-0.4,0.1
		c-0.2,0.1-0.4,0.2-0.6,0.4c-0.2,0.1-0.4,0.3-0.6,0.5C123.9,64.4,123.8,64.6,123.7,64.9z"/>
	<path d="M135.3,65.7c0,0.1,0.1,0.2,0.2,0.3c0,0,0,0,0.1,0c0.2,0,0.6-0.3,1.2-0.9c0-0.1,0-0.1,0-0.2c0-0.3,0.1-0.6,0.3-0.8
		c0.2-0.3,0.5-0.6,0.8-0.8c0.2-0.2,0.4-0.3,0.6-0.3c0.2,0,0.3,0.2,0.3,0.5c0,0.3-0.1,0.6-0.2,0.8c-0.2,0.3-0.4,0.6-0.6,0.8l0.2,0.1
		l0.2,0.1c0.1,0,0.1,0,0.2,0c0.2,0,0.5-0.1,0.6-0.3v0.4c-0.3,0.3-0.6,0.4-1,0.5c-0.1,0-0.3,0-0.4,0c-0.1,0-0.3-0.1-0.4-0.2
		c-0.9,0.9-1.6,1.3-2.1,1.3c-0.2,0-0.3,0-0.4-0.2c-0.1-0.1-0.2-0.3-0.2-0.4c0-0.1,0.1-0.4,0.2-1l-0.7,0.6c-0.3,0.2-0.5,0.4-0.6,0.5
		c-0.1,0.1-0.3,0.2-0.4,0.3c-0.1,0.1-0.3,0.1-0.4,0.1c-0.2,0-0.3-0.1-0.5-0.2c-0.2-0.1-0.4-0.3-0.5-0.5c-0.1-0.2-0.2-0.5-0.2-0.7
		c0-0.2,0-0.4,0.1-0.6c0.2-0.3,0.4-0.6,0.6-0.8c0.3-0.3,0.6-0.6,0.8-0.8c0.2-0.2,0.4-0.3,0.6-0.5c0.1-0.1,0.3-0.1,0.4-0.2
		c0.1,0,0.2,0,0.3,0c0.1,0,0.2,0.1,0.3,0.1c0.1,0,0.1,0.1,0.1,0.1c0,0.2-0.1,0.4-0.2,0.6c-0.2,0.3-0.5,0.5-0.8,0.7
		c-0.3,0.3-0.7,0.6-1.1,0.9c-0.1,0.2-0.2,0.4-0.2,0.6c0,0.1,0,0.1,0.1,0.2c0,0,0.1,0.1,0.2,0.1c0.5-0.1,0.9-0.4,1.2-0.7
		c0.8-0.7,1.6-1.5,2.3-2.2c0.1,0,0.2-0.1,0.2-0.1c0.1,0,0.2,0,0.3,0.1c0.1,0,0.2,0.1,0.2,0.2c-0.1,0.3-0.2,0.5-0.4,0.7
		c-0.3,0.4-0.5,0.8-0.7,1.1C135.5,65.2,135.4,65.4,135.3,65.7z"/>
	<path d="M142.6,65v0.4c-0.4,0.4-0.9,0.8-1.4,1.1c-0.3,0.2-0.7,0.3-1.1,0.4c-0.4,0-0.7-0.2-0.9-0.5c-0.2-0.3-0.3-0.7-0.3-1.1
		c0-0.1,0-0.3,0.1-0.4c0-0.1,0.1-0.2,0.1-0.3c0.1-0.1,0.2-0.3,0.3-0.4c0.4-0.7,1.2-1.2,2-1.3c0.3,0,0.5,0.1,0.5,0.3
		c0,0.2-0.2,0.4-0.3,0.6c-0.2,0.2-0.3,0.4-0.5,0.6c-0.4,0.3-0.7,0.6-0.9,0.7c-0.1,0.1-0.2,0.3-0.2,0.4c0,0.1,0.1,0.3,0.2,0.3
		c0.2,0.1,0.3,0.1,0.5,0.1c0.3,0,0.6-0.1,0.8-0.2C141.9,65.5,142.2,65.3,142.6,65z M142.1,62.4c-0.1,0-0.3,0-0.4-0.1
		c-0.1-0.1-0.2-0.2-0.2-0.3c0-0.2,0.1-0.4,0.3-0.6c0.2-0.2,0.4-0.3,0.7-0.3c0.1,0,0.3,0,0.4,0.1c0.1,0.1,0.2,0.2,0.2,0.3
		c0,0.2-0.1,0.4-0.3,0.5C142.6,62.3,142.3,62.4,142.1,62.4z"/>
	<path d="M146.2,65v0.4c-1.1,1.1-1.9,1.6-2.6,1.6c-0.3,0-0.6-0.2-0.8-0.4c-0.2-0.4-0.3-0.8-0.3-1.2c0-0.5,0.1-1,0.4-1.4
		c0.3-0.6,0.6-1.1,1-1.6c0.4-0.5,0.8-1,1.3-1.5c0.4-0.4,0.8-0.7,1.2-0.9c0.1-0.1,0.2-0.1,0.4-0.1c0.1,0,0.2,0,0.2,0.1
		c0,0.1,0.1,0.2,0,0.4c-0.1,0.7-0.4,1.4-0.9,2c-0.7,0.9-1.5,1.7-2.4,2.4c0,0.2-0.1,0.3-0.1,0.5c0,0.2,0.1,0.4,0.2,0.6
		c0.1,0.2,0.4,0.2,0.6,0.2c0.1,0,0.3,0,0.4-0.1c0.2-0.1,0.3-0.2,0.5-0.3L146.2,65z M143.9,63.9c0.3-0.2,0.6-0.4,0.8-0.7
		c0.2-0.3,0.5-0.5,0.7-0.8c0.2-0.3,0.4-0.5,0.5-0.8c0.1-0.2,0.2-0.3,0.2-0.5c0-0.1,0-0.1-0.1-0.1c0,0,0,0,0,0c-0.1,0-0.1,0-0.2,0.1
		c-0.4,0.3-0.8,0.7-1.1,1.1C144.3,62.7,144.1,63.3,143.9,63.9z"/>
	<path d="M149.7,65v0.4c-1.1,1.1-1.9,1.6-2.6,1.6c-0.3,0-0.6-0.2-0.8-0.4c-0.3-0.4-0.4-0.8-0.4-1.2c0-0.5,0.1-1,0.4-1.4
		c0.3-0.6,0.6-1.1,1-1.6c0.4-0.5,0.8-1,1.3-1.5c0.4-0.4,0.8-0.7,1.2-0.9c0.1-0.1,0.2-0.1,0.4-0.1c0.1,0,0.2,0,0.2,0.1
		c0,0.1,0.1,0.2,0,0.4c-0.1,0.7-0.4,1.4-0.9,2c-0.7,0.9-1.5,1.7-2.4,2.4c0,0.2-0.1,0.3-0.1,0.5c0,0.2,0.1,0.4,0.2,0.6
		c0.1,0.2,0.4,0.2,0.6,0.2c0.1,0,0.3,0,0.4-0.1c0.2-0.1,0.3-0.2,0.5-0.3L149.7,65z M147.4,63.9c0.3-0.2,0.6-0.4,0.8-0.7
		c0.2-0.3,0.5-0.5,0.7-0.8c0.2-0.3,0.4-0.5,0.5-0.8c0.1-0.2,0.2-0.3,0.2-0.5c0-0.1,0-0.1-0.1-0.1c0,0,0,0,0,0c-0.1,0-0.1,0-0.2,0.1
		c-0.4,0.3-0.8,0.7-1.1,1.1C147.9,62.7,147.6,63.3,147.4,63.9z"/>
	<path d="M159,65v0.4c-0.4,0.2-0.8,0.3-1.2,0.4c-0.2,0-0.4,0-0.5-0.1c-0.4,0.4-0.7,0.7-1.2,1c-0.3,0.2-0.6,0.3-1,0.3
		c-0.4,0-0.7-0.2-0.9-0.5c-0.2-0.3-0.3-0.7-0.3-1.1c0-0.7,0.3-1.4,0.7-2c0.5-0.7,1.1-1.4,1.7-2c0.6-0.6,1.3-1.1,2-1.6
		c0.4-0.3,0.8-0.5,1.3-0.6c0.2,0,0.3,0.1,0.3,0.3c0,0,0,0,0,0.1c0,1-1.7,2.8-5.1,5.3c0,0.1,0,0.3,0,0.4c0,0.5,0.2,0.8,0.6,0.8
		c0.2,0,0.3-0.1,0.4-0.1c0.2-0.2,0.5-0.3,0.7-0.5c-0.1-0.1-0.2-0.3-0.2-0.5c0-0.3,0.1-0.5,0.3-0.7c0.2-0.2,0.5-0.5,0.8-0.6
		c0.2-0.1,0.4-0.2,0.6-0.3c0.2,0,0.3,0.1,0.3,0.3c0,0.2-0.1,0.4-0.2,0.6c-0.2,0.3-0.3,0.5-0.5,0.8l0.2,0.1c0.1,0,0.2,0,0.2,0
		C158.5,65.2,158.8,65.1,159,65z M155.2,64.2c0.3-0.2,0.6-0.4,0.8-0.6c0.3-0.2,0.7-0.6,1.2-1.1c0.5-0.5,0.9-0.9,1.2-1.2
		c0.2-0.3,0.4-0.5,0.6-0.8c0.1-0.1,0.2-0.3,0.2-0.4c0-0.1,0-0.1-0.1-0.1c-0.3,0.1-0.5,0.2-0.7,0.4c-0.4,0.4-0.8,0.7-1.2,1.2
		c-0.6,0.7-1.1,1.2-1.3,1.5C155.6,63.4,155.3,63.8,155.2,64.2z"/>
	<path d="M160.3,65.2v0.2c0,0.2,0.1,0.4,0.2,0.5c0.2,0.1,0.4,0.2,0.6,0.2c0.3,0,0.5,0,0.8-0.1c0.3-0.1,0.5-0.2,0.8-0.4
		c0.3-0.1,0.6-0.3,1-0.6v0.4c-0.5,0.5-1,0.9-1.6,1.2c-0.5,0.3-1,0.4-1.5,0.4c-0.4,0-0.8-0.1-1.1-0.4c-0.3-0.3-0.4-0.7-0.4-1.1
		c0-0.4,0.1-0.8,0.4-1.1c0.3-0.4,0.8-0.8,1.2-1c0.4-0.2,0.7-0.4,1.1-0.6c0.3-0.1,0.7-0.2,1-0.2c0.2,0,0.4,0,0.6,0.1
		c0.1,0.1,0.2,0.2,0.2,0.4c0,0.3-0.1,0.5-0.4,0.7c-0.3,0.3-0.7,0.5-1.1,0.7C161.5,64.8,160.9,65.1,160.3,65.2z M160.3,64.9
		c0.4-0.1,0.8-0.3,1.2-0.5c0.3-0.2,0.5-0.3,0.7-0.6c0.1-0.1,0.2-0.2,0.2-0.4c0-0.1-0.1-0.1-0.2-0.1c-0.2,0-0.3,0.1-0.4,0.1
		c-0.2,0.1-0.4,0.2-0.6,0.4c-0.2,0.1-0.4,0.3-0.6,0.5C160.5,64.4,160.4,64.6,160.3,64.9z"/>
	<path d="M173,65v0.4c-0.4,0.2-0.8,0.3-1.2,0.4c-0.2,0-0.4,0-0.5-0.1c-0.4,0.4-0.8,0.7-1.2,1c-0.3,0.2-0.6,0.3-1,0.3
		c-0.4,0-0.7-0.2-0.9-0.5c-0.2-0.3-0.3-0.7-0.3-1.1c0-0.7,0.3-1.4,0.7-2c0.5-0.7,1.1-1.4,1.8-2c0.6-0.6,1.3-1.1,2-1.6
		c0.4-0.3,0.8-0.5,1.3-0.6c0.2,0,0.3,0.1,0.3,0.3c0,0,0,0,0,0.1c0,1-1.7,2.8-5.1,5.3c0,0.1,0,0.3,0,0.4c0,0.5,0.2,0.8,0.6,0.8
		c0.2,0,0.3-0.1,0.4-0.1c0.2-0.2,0.5-0.3,0.7-0.5c-0.1-0.1-0.2-0.3-0.2-0.5c0-0.3,0.1-0.5,0.3-0.7c0.2-0.2,0.5-0.5,0.8-0.6
		c0.2-0.1,0.4-0.2,0.6-0.3c0.2,0,0.3,0.1,0.3,0.3c0,0.2-0.1,0.4-0.2,0.6c-0.1,0.3-0.3,0.6-0.5,0.8c0.1,0,0.1,0.1,0.2,0.1
		c0.1,0,0.2,0,0.2,0C172.5,65.2,172.7,65.1,173,65z M169.1,64.2c0.3-0.2,0.6-0.4,0.8-0.6c0.3-0.2,0.7-0.6,1.2-1.1s0.9-0.9,1.2-1.2
		c0.2-0.3,0.4-0.5,0.6-0.8c0.1-0.1,0.2-0.3,0.2-0.4c0-0.1,0-0.1-0.1-0.1c-0.3,0.1-0.5,0.2-0.7,0.4c-0.4,0.4-0.8,0.7-1.2,1.1
		c-0.6,0.7-1.1,1.2-1.3,1.5C169.5,63.4,169.3,63.8,169.1,64.2z"/>
	<path d="M174.2,65.2v0.2c0,0.2,0.1,0.4,0.2,0.5c0.2,0.1,0.4,0.2,0.6,0.2c0.3,0,0.5,0,0.8-0.1c0.3-0.1,0.5-0.2,0.8-0.4
		c0.3-0.1,0.6-0.3,1-0.6v0.4c-0.5,0.5-1,0.9-1.6,1.2c-0.5,0.3-1,0.4-1.5,0.4c-0.4,0-0.8-0.1-1.1-0.4c-0.3-0.3-0.4-0.7-0.4-1.1
		c0-0.4,0.1-0.8,0.4-1.1c0.3-0.4,0.8-0.8,1.2-1c0.4-0.2,0.7-0.4,1.1-0.6c0.3-0.1,0.7-0.2,1-0.2c0.2,0,0.4,0,0.6,0.1
		c0.1,0.1,0.2,0.2,0.2,0.4c0,0.3-0.1,0.5-0.4,0.7c-0.3,0.3-0.7,0.5-1.1,0.7C175.4,64.8,174.8,65.1,174.2,65.2z M174.3,64.9
		c0.4-0.1,0.8-0.3,1.2-0.5c0.3-0.2,0.5-0.3,0.7-0.6c0.1-0.1,0.2-0.2,0.2-0.4c0-0.1,0-0.1-0.2-0.1c-0.2,0-0.3,0.1-0.4,0.1
		c-0.2,0.1-0.4,0.2-0.6,0.4c-0.2,0.1-0.4,0.3-0.6,0.5C174.4,64.4,174.3,64.6,174.3,64.9z"/>
	<path d="M180.2,62h0.3c0.2-0.3,0.4-0.6,0.7-0.8c0.2-0.2,0.5-0.2,0.7-0.2c0.3,0,0.4,0,0.4,0.1c0,0.1-0.1,0.2-0.3,0.4
		c-0.2,0.2-0.3,0.3-0.5,0.5h0.5h0.3c-0.3,0.5-0.7,0.9-1.1,1.3h-0.4h-0.3h-0.4c-0.3,0.3-0.5,0.6-0.7,0.9c-0.2,0.2-0.3,0.5-0.4,0.7
		c-0.1,0.2-0.1,0.4-0.2,0.6c0,0.3,0.1,0.4,0.4,0.4c0.3,0,0.5-0.1,0.8-0.2c0.3-0.2,0.7-0.4,1.3-0.7v0.3c-1.4,1.1-2.4,1.7-3,1.7
		c-0.2,0-0.4-0.1-0.5-0.2c-0.1-0.1-0.2-0.3-0.2-0.5c0-0.2,0-0.3,0.1-0.5c0.1-0.2,0.2-0.5,0.4-0.9l-0.2,0.1l-0.2,0.1l-0.2,0.1
		l-0.2,0.1v-0.4c0.7-0.5,1.4-1.1,1.9-1.8h-0.4c-0.2,0-0.4,0-0.7,0h-0.2h-0.1l0,0c0-0.2,0.2-0.4,0.3-0.6c0.1-0.2,0.3-0.3,0.5-0.5
		c0.2-0.1,0.3-0.2,0.5-0.2C179.6,62,179.9,62,180.2,62z"/>
	<path d="M184.1,62h0.3c0.2-0.3,0.4-0.6,0.7-0.8c0.2-0.2,0.5-0.2,0.7-0.2c0.3,0,0.4,0,0.4,0.1c0,0.1-0.1,0.2-0.3,0.4
		c-0.2,0.2-0.3,0.3-0.5,0.5h0.5h0.3c-0.3,0.4-0.7,0.9-1.1,1.3h-0.4h-0.3h-0.4c-0.3,0.3-0.5,0.6-0.7,0.9c-0.2,0.2-0.3,0.5-0.4,0.7
		c-0.1,0.2-0.1,0.4-0.1,0.6c0,0.3,0.1,0.4,0.4,0.4c0.3,0,0.5-0.1,0.8-0.2c0.3-0.2,0.7-0.4,1.3-0.7v0.4c-1.4,1.1-2.4,1.7-3,1.7
		c-0.2,0-0.4-0.1-0.6-0.2c-0.1-0.1-0.2-0.3-0.2-0.5c0-0.2,0-0.3,0.1-0.5c0.1-0.2,0.2-0.5,0.4-0.9l-0.2,0.1l-0.2,0.1l-0.2,0.1
		l-0.2,0.1v-0.4c0.7-0.5,1.4-1.1,1.9-1.8h-0.4c-0.2,0-0.4,0-0.7,0H182c0,0-0.1,0-0.1,0l0,0c0-0.2,0.2-0.4,0.3-0.6
		c0.1-0.2,0.3-0.3,0.5-0.5c0.2-0.1,0.3-0.2,0.5-0.2C183.5,62,183.8,62,184.1,62z"/>
	<path d="M186.5,65.2v0.2c0,0.2,0.1,0.4,0.2,0.5c0.2,0.1,0.4,0.2,0.6,0.2c0.3,0,0.5,0,0.8-0.1c0.3-0.1,0.5-0.2,0.8-0.4
		c0.3-0.1,0.6-0.3,1-0.6v0.4c-0.5,0.5-1,0.9-1.6,1.2c-0.5,0.3-1,0.4-1.5,0.4c-0.4,0-0.8-0.1-1.1-0.4c-0.3-0.3-0.4-0.7-0.4-1.1
		c0-0.4,0.1-0.8,0.4-1.1c0.3-0.4,0.8-0.8,1.2-1c0.4-0.2,0.7-0.4,1.1-0.6c0.3-0.1,0.7-0.2,1-0.2c0.2,0,0.4,0,0.6,0.1
		c0.1,0.1,0.2,0.2,0.2,0.4c0,0.3-0.1,0.5-0.4,0.7c-0.3,0.3-0.7,0.5-1.1,0.7C187.8,64.8,187.1,65.1,186.5,65.2z M186.6,64.9
		c0.4-0.1,0.8-0.3,1.2-0.5c0.3-0.1,0.5-0.3,0.7-0.5c0.1-0.1,0.2-0.2,0.2-0.4c0-0.1-0.1-0.1-0.2-0.1c-0.2,0-0.3,0.1-0.4,0.1
		c-0.2,0.1-0.4,0.2-0.6,0.4c-0.2,0.1-0.4,0.3-0.6,0.5C186.7,64.4,186.6,64.6,186.6,64.9z"/>
	<path d="M189.7,65.5v-0.4c0.2-0.2,0.4-0.4,0.6-0.6c-0.1,0-0.2-0.1-0.4-0.2c-0.1-0.1-0.1-0.2-0.1-0.3c0-0.2,0.1-0.4,0.2-0.5
		c0.2-0.2,0.3-0.4,0.6-0.6c0.2-0.2,0.4-0.3,0.6-0.4c0.1,0,0.1,0,0.2,0c0.1,0,0.2,0,0.2,0.1c0,0.2-0.1,0.3-0.2,0.4
		c1-0.1,1.7-0.2,2-0.2c0.1,0,0.1,0,0.2,0c0.1,0,0.2,0.1,0.2,0.2c0,0.1,0.1,0.3,0.1,0.4c0,0.1-0.1,0.2-0.1,0.3
		c-0.2,0.1-0.3,0.3-0.5,0.4c-0.3,0.2-0.5,0.4-0.7,0.7c-0.1,0.2-0.2,0.4-0.3,0.6c0,0.2,0.1,0.3,0.4,0.3c0.6-0.1,1.1-0.4,1.6-0.7v0.4
		c-0.4,0.3-0.8,0.6-1,0.8c-0.3,0.2-0.5,0.3-0.8,0.5c-0.2,0.1-0.4,0.2-0.6,0.2c-0.2,0-0.4-0.1-0.5-0.2c-0.2-0.2-0.2-0.4-0.2-0.6
		c0-0.2,0.1-0.4,0.2-0.6c0.1-0.2,0.3-0.5,0.5-0.7c0.2-0.3,0.5-0.5,0.7-0.7l-0.5,0.1l-0.6,0.1l-0.5,0.1
		C190.7,64.7,190.3,65.1,189.7,65.5z"/>
	<path d="M201.4,62h0.3c0.2-0.3,0.4-0.6,0.7-0.8c0.2-0.2,0.5-0.2,0.7-0.2c0.3,0,0.4,0,0.4,0.1c0,0.1-0.1,0.2-0.3,0.4
		c-0.2,0.2-0.3,0.3-0.5,0.5h0.5h0.3c-0.3,0.4-0.7,0.9-1.1,1.3h-0.4h-0.3h-0.4c-0.3,0.3-0.5,0.6-0.7,0.9c-0.2,0.2-0.3,0.5-0.4,0.7
		c-0.1,0.2-0.1,0.4-0.2,0.6c0,0.3,0.1,0.4,0.4,0.4c0.3,0,0.5-0.1,0.8-0.2c0.3-0.2,0.7-0.4,1.3-0.7v0.4c-1.4,1.1-2.4,1.7-3,1.7
		c-0.2,0-0.4-0.1-0.6-0.2c-0.1-0.1-0.2-0.3-0.2-0.5c0-0.2,0-0.3,0.1-0.5c0.1-0.2,0.2-0.5,0.4-0.9l-0.2,0.1c-0.1,0-0.1,0.1-0.2,0.1
		l-0.2,0.1l-0.2,0.1v-0.4c0.7-0.5,1.4-1.1,1.9-1.8h-0.4c-0.2,0-0.4,0-0.7,0h-0.2h-0.1l0,0c0-0.2,0.2-0.4,0.3-0.6
		c0.1-0.2,0.3-0.3,0.5-0.5c0.2-0.1,0.3-0.2,0.5-0.2C200.8,62,201.1,62,201.4,62z"/>
	<path d="M208.3,65v0.4c-0.4,0.3-0.8,0.6-1.1,0.8c-0.3,0.2-0.5,0.4-0.8,0.5c-0.2,0.1-0.4,0.2-0.6,0.2c-0.4,0-0.6-0.2-0.6-0.5
		c0-0.4,0.2-0.7,0.4-1c0.3-0.5,0.7-0.9,1.1-1.3c-0.2,0.1-0.4,0.2-0.6,0.3c-0.2,0.1-0.4,0.2-0.5,0.4l-0.4,0.3c-0.3,0.3-0.6,0.6-1,0.9
		s-0.5,0.5-0.6,0.6c-0.1,0.1-0.2,0.1-0.3,0.1c-0.4,0-0.6-0.4-0.6-1.1c0-0.3,0.1-0.5,0.1-0.8c0.2-0.4,0.5-0.8,0.8-1.2
		c0.9-1,1.6-1.8,2.3-2.5c0.5-0.5,1-1,1.6-1.5c0.4-0.3,0.7-0.5,0.8-0.5c0.1,0,0.3,0,0.4,0.1c0.1,0,0.2,0.1,0.2,0.1
		c0,0.2-0.1,0.3-0.3,0.5c-0.2,0.2-0.5,0.6-0.9,1l-1,1c-0.2,0.2-0.5,0.5-0.9,0.9l-1.1,1c-0.3,0.3-0.7,0.6-1.1,0.9v0.7
		c0.7-0.6,1.3-1,1.8-1.4c0.4-0.3,0.8-0.6,1.3-0.8c0.2-0.1,0.5-0.2,0.8-0.3c0.3,0,0.5,0.2,0.6,0.5c0,0.1,0,0.1-0.1,0.1
		c-0.4,0.3-0.7,0.6-0.9,0.8c-0.2,0.2-0.4,0.4-0.5,0.6c-0.1,0.1-0.2,0.3-0.2,0.4c0,0.2,0.1,0.3,0.3,0.3
		C207.3,65.6,207.8,65.4,208.3,65z"/>
	<path d="M209.2,64c0.7-0.5,1.4-0.9,2.2-1.2c0.5-0.2,1.1-0.3,1.7-0.4c0.1,0,0.2,0,0.3,0.1c0.1,0.1,0.2,0.1,0.2,0.2
		c0,0.1,0.1,0.1,0.1,0.2c0,0.1,0,0.1-0.1,0.2c-0.1,0-0.2,0.1-0.4,0.1c0,0.1,0.1,0.1,0.1,0.2c0.1,0.1,0.1,0.2,0.1,0.2
		c0,0,0,0.1,0,0.2c0,0.1-0.1,0.3-0.4,0.5s-0.4,0.4-0.5,0.6c-0.1,0.1-0.1,0.3-0.1,0.4c0,0.3,0.2,0.4,0.5,0.4c0.6-0.1,1.2-0.4,1.7-0.8
		v0.4c-1.3,1.1-2.2,1.6-2.7,1.6c-0.2,0-0.3,0-0.4-0.1c-0.1-0.1-0.1-0.3-0.1-0.4c0.1-0.5,0.2-0.9,0.4-1.3c-0.7,0.6-1.3,1.1-1.7,1.3
		c-0.3,0.2-0.6,0.4-0.9,0.4c-0.2,0-0.3-0.1-0.4-0.2c-0.2-0.2-0.3-0.4-0.4-0.6c-0.1-0.2-0.2-0.5-0.2-0.7c0-0.2,0-0.3,0.1-0.4
		c0.1-0.1,0.2-0.3,0.3-0.4C208.8,64.3,209,64.1,209.2,64z M212.8,63.3c-1,0.3-1.9,0.7-2.8,1.2c-0.5,0.3-0.8,0.6-0.8,1
		c0,0.1,0,0.2,0.1,0.3c0.1,0.1,0.1,0.1,0.2,0.1c0.1,0,0.2,0,0.3-0.1c0.5-0.2,1-0.6,1.5-0.9C211.8,64.4,212.3,63.9,212.8,63.3z"/>
	<path d="M219.7,64c-0.9,0.8-1.3,1.3-1.3,1.6c0,0.2,0.1,0.2,0.3,0.2c0.2,0,0.4-0.1,0.6-0.2c0.2-0.1,0.6-0.3,1.1-0.6v0.4
		c-0.7,0.5-1.3,0.9-1.7,1.2c-0.3,0.2-0.6,0.3-0.9,0.4c-0.3,0-0.6-0.2-0.6-0.5c0-0.1,0-0.1,0-0.2c0-0.1,0-0.2,0.1-0.4
		c0.1-0.1,0.1-0.3,0.2-0.4c0.1-0.1,0.2-0.3,0.4-0.6c0.2-0.2,0.4-0.5,0.6-0.8c-0.4,0.2-0.8,0.4-1.1,0.7c-0.3,0.2-0.5,0.4-0.7,0.6
		c-0.2,0.2-0.4,0.4-0.6,0.6c-0.2,0.2-0.3,0.3-0.5,0.5c-0.1,0.1-0.2,0.1-0.3,0.1c-0.2,0-0.3-0.1-0.4-0.4c-0.1-0.3-0.2-0.6-0.2-0.9
		c0-0.2,0-0.3,0.1-0.5c0.1-0.2,0.2-0.3,0.4-0.5c0.3-0.3,0.6-0.6,0.9-0.9c0.2-0.2,0.5-0.3,0.7-0.3c0.1,0,0.3,0,0.4,0.1
		c0.1,0,0.2,0.1,0.2,0.2c0,0,0,0.1,0,0.1c0,0-0.1,0.1-0.1,0.1l-0.2,0.2c-0.8,0.7-1.2,1.1-1.2,1.3c0,0.2,0,0.2,0.1,0.2
		c0.1,0,0.2-0.1,0.4-0.2c0.2-0.2,0.4-0.3,0.7-0.6c0.3-0.2,0.6-0.5,1-0.8c0.4-0.3,0.8-0.5,1.3-0.8c0.2-0.1,0.4-0.2,0.7-0.2
		c0.1,0,0.2,0.1,0.2,0.3c0.1,0.2,0.1,0.3,0.1,0.5C220.1,63.7,219.9,63.8,219.7,64z"/>
	<path d="M227.3,62h0.3c0.2-0.3,0.4-0.6,0.7-0.8c0.2-0.2,0.5-0.2,0.7-0.2c0.3,0,0.4,0,0.4,0.1c0,0.1-0.1,0.2-0.3,0.4
		c-0.2,0.2-0.3,0.3-0.5,0.5h0.5h0.3c-0.3,0.5-0.7,0.9-1.1,1.3h-0.4h-0.3h-0.4c-0.3,0.3-0.5,0.6-0.7,0.9c-0.2,0.2-0.3,0.5-0.4,0.7
		c-0.1,0.2-0.1,0.4-0.2,0.6c0,0.3,0.1,0.4,0.4,0.4c0.3,0,0.5-0.1,0.8-0.2c0.3-0.2,0.7-0.4,1.3-0.7v0.4c-1.4,1.1-2.4,1.7-3,1.7
		c-0.2,0-0.4-0.1-0.5-0.2c-0.1-0.1-0.2-0.3-0.2-0.5c0-0.2,0-0.3,0.1-0.5c0.1-0.2,0.2-0.5,0.4-0.9l-0.2,0.1l-0.2,0.1l-0.2,0.1
		l-0.2,0.1v-0.4c0.7-0.5,1.4-1.1,1.9-1.8h-0.4c-0.2,0-0.4,0-0.7,0h-0.2c0,0-0.1,0-0.1,0l0,0c0-0.2,0.2-0.4,0.3-0.6
		c0.1-0.2,0.3-0.3,0.5-0.5c0.2-0.1,0.4-0.2,0.5-0.2C226.7,62,227,62,227.3,62z"/>
	<path d="M234.2,65v0.4c-0.4,0.3-0.8,0.6-1.1,0.8c-0.3,0.2-0.5,0.4-0.8,0.5c-0.2,0.1-0.4,0.2-0.6,0.2c-0.4,0-0.6-0.2-0.6-0.5
		c0-0.4,0.1-0.7,0.4-1c0.3-0.5,0.7-0.9,1.1-1.3c-0.2,0.1-0.4,0.2-0.6,0.3c-0.2,0.1-0.4,0.2-0.5,0.4l-0.4,0.3c-0.3,0.3-0.6,0.6-1,0.9
		s-0.5,0.5-0.6,0.6c-0.1,0.1-0.2,0.1-0.3,0.1c-0.4,0-0.6-0.4-0.6-1.1c0-0.3,0.1-0.5,0.1-0.8c0.2-0.4,0.5-0.8,0.8-1.2
		c0.9-1,1.6-1.8,2.3-2.5c0.5-0.5,1-1,1.6-1.5c0.4-0.3,0.7-0.5,0.8-0.5c0.1,0,0.3,0,0.4,0.1c0.1,0,0.2,0.1,0.2,0.1
		c0,0.2-0.1,0.3-0.3,0.5c-0.2,0.2-0.5,0.6-0.9,1l-1,1c-0.2,0.2-0.5,0.5-0.9,0.9l-1.1,1c-0.3,0.3-0.7,0.6-1.1,0.9v0.7
		c0.7-0.6,1.3-1,1.8-1.4c0.4-0.3,0.8-0.6,1.3-0.8c0.2-0.2,0.5-0.3,0.8-0.3c0.2,0,0.3,0.1,0.4,0.2c0.1,0.1,0.2,0.2,0.2,0.3
		c0,0.1,0,0.1-0.1,0.1c-0.4,0.3-0.6,0.6-0.9,0.8c-0.2,0.2-0.4,0.4-0.5,0.6c-0.1,0.1-0.2,0.3-0.2,0.4c0,0.2,0.1,0.3,0.3,0.3
		C233.3,65.6,233.8,65.4,234.2,65z"/>
	<path d="M237.7,65.2l-1.4,0.9c-0.4,0.3-0.8,0.5-1.3,0.6c-0.2,0-0.4-0.2-0.6-0.5c-0.2-0.3-0.3-0.6-0.3-0.9c0-0.2,0-0.4,0.1-0.6
		c0.1-0.2,0.3-0.4,0.5-0.6c0.3-0.3,0.6-0.6,0.9-0.8c0.2-0.2,0.5-0.4,0.7-0.5c0.1-0.1,0.3-0.2,0.5-0.2c0.1,0,0.3,0.1,0.4,0.2
		c0.1,0.1,0.2,0.2,0.2,0.3c0,0.1-0.1,0.3-0.2,0.4c-0.2,0.2-0.4,0.4-0.7,0.6c-0.3,0.2-0.7,0.5-1.3,0.9l-0.1,0.3c0,0-0.1,0.1-0.1,0.2
		c0,0.1,0.1,0.2,0.2,0.2c0.4-0.1,0.7-0.2,1-0.4c0.6-0.3,1.2-0.7,1.7-1.1c0.2-0.2,0.4-0.3,0.6-0.5l0.4-0.4c0.1-0.1,0.2-0.2,0.3-0.3
		c0.1-0.1,0.1-0.1,0.2-0.1c0.1,0,0.2,0,0.3,0.1c0.1,0.1,0.1,0.3,0.1,0.4c0,0.1-0.1,0.3-0.2,0.4c-0.1,0.2-0.3,0.4-0.7,0.8
		c-0.3,0.4-0.7,0.8-1,1.2c-0.3,0.4-0.7,0.9-1,1.4l0.5-0.3l0.9-0.7l0.8-0.6c0.2-0.1,0.5-0.3,0.8-0.5v0.4c-0.7,0.6-1.3,1.1-1.9,1.6
		c-0.5,0.5-1,0.9-1.3,1.2l-0.5,0.5l-0.4,0.4c-0.1,0.1-0.2,0.2-0.3,0.3c0,0.1-0.1,0.1-0.2,0.1c-0.1,0-0.2-0.1-0.3-0.2
		c-0.1-0.1-0.1-0.3-0.1-0.4c0-0.1,0-0.2,0.1-0.3C236,67.4,236.8,66.3,237.7,65.2z"/>
	<path d="M244.3,65.5v-0.4c0.7-0.6,1.3-1.1,1.8-1.7l1.2-1.3c0.2-0.3,0.5-0.5,0.8-0.6c0.3-0.1,0.6-0.2,0.9-0.2c0.2,0,0.3,0.1,0.3,0.2
		c0,0.1-0.1,0.3-0.2,0.4c-0.2,0.2-0.3,0.3-0.5,0.5c-0.3,0.2-0.6,0.5-0.9,0.8c-0.3,0.3-0.6,0.7-0.9,1.2c0.3-0.2,0.6-0.4,0.9-0.6
		c0.4-0.2,0.6-0.4,0.9-0.5c0.2-0.1,0.4-0.2,0.7-0.3c0.2-0.1,0.4-0.1,0.7-0.1c0.1,0,0.2,0,0.3,0.1c0.1,0.1,0.1,0.1,0.1,0.2
		c0,0.3-0.1,0.6-0.3,0.9c-0.2,0.3-0.5,0.6-0.8,0.9c-0.4,0.3-0.8,0.6-1.3,1c0.2,0,0.4,0.1,0.5,0.1c0.9-0.1,1.7-0.5,2.4-1v0.4
		c-0.4,0.3-0.8,0.5-1.1,0.7c-0.3,0.2-0.7,0.4-1,0.6c-0.3,0.1-0.6,0.2-0.9,0.2h-0.3l-0.3-0.1l-0.4-0.1l-0.4-0.1l-0.3,0
		c-0.2,0-0.4-0.1-0.6-0.2c-0.2,0.3-0.4,0.6-0.6,1c-0.2,0.4-0.4,0.7-0.5,0.9c-0.1,0.2-0.3,0.5-0.5,0.7c-0.1,0.1-0.2,0.1-0.3,0.1
		c-0.2,0-0.3-0.1-0.3-0.4c0-0.3,0.1-0.6,0.2-0.8c0.1-0.3,0.3-0.6,0.5-0.8c0.2-0.2,0.4-0.5,0.6-0.8c0.2-0.3,0.4-0.4,0.5-0.6
		c0.8-1.1,1.4-1.9,1.9-2.7C245.8,64.3,244.9,65,244.3,65.5z M247.4,65.8c0.4-0.3,0.8-0.7,1.1-1c0.2-0.2,0.3-0.4,0.4-0.6
		c0-0.1-0.1-0.2-0.3-0.2c-0.4,0.1-0.8,0.2-1.1,0.5c-0.5,0.4-1,0.8-1.4,1.3c0.3,0,0.5,0,0.8,0C247.1,65.7,247.2,65.7,247.4,65.8
		L247.4,65.8z"/>
	<path d="M251.6,64c0.7-0.5,1.4-0.9,2.2-1.2c0.5-0.2,1.1-0.3,1.7-0.4c0.1,0,0.2,0,0.3,0.1c0.1,0.1,0.2,0.1,0.2,0.2
		c0,0.1,0.1,0.1,0.1,0.2c0,0.1,0,0.1-0.1,0.2c-0.1,0-0.2,0.1-0.4,0.1c0,0.1,0.1,0.1,0.1,0.2c0.1,0.1,0.1,0.2,0.1,0.2
		c0,0,0,0.1,0,0.2c0,0.1-0.1,0.3-0.4,0.5c-0.2,0.2-0.4,0.4-0.5,0.6c-0.1,0.1-0.2,0.3-0.2,0.4c0,0.3,0.2,0.4,0.5,0.4
		c0.6-0.1,1.2-0.4,1.7-0.8v0.4c-1.3,1.1-2.2,1.6-2.8,1.6c-0.2,0-0.3,0-0.4-0.1c-0.1-0.1-0.1-0.3-0.1-0.4c0.1-0.5,0.2-0.9,0.4-1.3
		c-0.7,0.6-1.3,1.1-1.6,1.3c-0.3,0.2-0.6,0.4-0.9,0.4c-0.2,0-0.3-0.1-0.4-0.2c-0.2-0.2-0.3-0.4-0.4-0.6c-0.1-0.2-0.2-0.5-0.2-0.7
		c0-0.2,0-0.3,0.1-0.4c0.1-0.1,0.2-0.3,0.3-0.4C251.2,64.3,251.4,64.1,251.6,64z M255.3,63.3c-1,0.3-1.9,0.7-2.8,1.2
		c-0.5,0.3-0.8,0.6-0.8,1c0,0.1,0,0.2,0.1,0.3c0,0.1,0.1,0.1,0.2,0.1c0.1,0,0.2,0,0.3-0.1c0.5-0.2,1-0.6,1.5-0.9
		C254.2,64.4,254.8,63.9,255.3,63.3z"/>
	<path d="M257,65.2V65c1.3-1.1,2.2-1.8,2.7-2.2c0-0.4,0.4-0.7,0.8-0.7c0.1,0,0.2,0,0.3,0.1l0,0.1c0,0.1,0,0.1,0,0.2
		c0,0.1,0.1,0.3,0.1,0.4c0.1,0.2,0.1,0.4,0.2,0.5c0,0.1,0.1,0.3,0.1,0.5c0,0.3-0.1,0.5-0.2,0.7c-0.2,0.3-0.4,0.5-0.7,0.7
		c-0.4,0.3-0.7,0.5-1.1,0.7c0.1,0,0.3,0,0.4,0c0.2,0,0.5,0,0.7-0.1c0.3-0.1,0.5-0.2,0.7-0.3c0.2-0.1,0.5-0.3,0.9-0.5v0.4
		c-0.5,0.4-1.1,0.8-1.7,1.1c-0.4,0.2-0.9,0.4-1.3,0.4c-0.5,0-0.9-0.2-1.3-0.5c-0.2-0.1-0.4-0.3-0.4-0.5C257,65.7,257,65.4,257,65.2z
		 M259.8,64.3l-0.1-0.8c-0.3,0.3-1,0.8-2,1.5c0.2,0,0.4,0.1,0.6,0.2c0.2,0.1,0.3,0.3,0.5,0.5c0.3-0.1,0.6-0.2,0.8-0.4
		c0.2-0.2,0.3-0.5,0.3-0.8L259.8,64.3C259.9,64.4,259.8,64.3,259.8,64.3L259.8,64.3z"/>
	<path d="M264.6,62h0.3c0.2-0.3,0.4-0.6,0.7-0.8c0.2-0.2,0.5-0.2,0.7-0.2c0.3,0,0.4,0,0.4,0.1c0,0.1-0.1,0.2-0.3,0.4
		c-0.2,0.2-0.3,0.3-0.5,0.5h0.5h0.3c-0.3,0.4-0.7,0.9-1.1,1.3h-0.4H265h-0.4c-0.3,0.3-0.5,0.6-0.7,0.9c-0.2,0.2-0.3,0.5-0.4,0.7
		c-0.1,0.2-0.1,0.4-0.1,0.6c0,0.3,0.1,0.4,0.4,0.4c0.3,0,0.5-0.1,0.8-0.2c0.3-0.2,0.7-0.4,1.3-0.7v0.4c-1.4,1.1-2.4,1.7-3,1.7
		c-0.2,0-0.4-0.1-0.6-0.2c-0.1-0.1-0.2-0.3-0.2-0.5c0-0.2,0-0.3,0.1-0.5c0.1-0.2,0.2-0.5,0.4-0.9l-0.2,0.1l-0.2,0.1l-0.2,0.1
		l-0.2,0.1v-0.4c0.7-0.5,1.4-1.1,1.9-1.8h-0.4c-0.2,0-0.4,0-0.7,0h-0.2c0,0-0.1,0-0.1,0l0,0c0-0.2,0.2-0.4,0.3-0.6
		c0.1-0.2,0.3-0.3,0.5-0.5c0.2-0.1,0.3-0.2,0.5-0.2C264,62,264.3,62,264.6,62z"/>
</g>
<path class="st0" d="M106.5,84.3c0,2-0.7,3.5-2.2,4.3c-1.5,0.7-3.1,1-4.7,0.9c-1.7,0.1-3.3-0.3-4.8-1.1c-1.5-0.9-2.4-2.6-2.3-4.3V74
	H96v9.7c-0.1,1,0.4,2,1.2,2.6c0.6,0.4,1.4,0.6,2.1,0.6c1.5,0,2.5-0.3,3-1c0.5-0.7,0.8-1.6,0.7-2.4V74h3.4V84.3z"/>
<path class="st0" d="M118.2,89.6h-2.8V82c0-0.2,0-0.4-0.1-0.5c-0.1-0.2-0.2-0.3-0.3-0.5c-0.2-0.2-0.6-0.4-0.9-0.4h-2.7v9h-2.8V78.1
	h5.3c0.7,0,1.4,0,2.1,0.2c0.7,0.2,1.2,0.6,1.6,1.2c0.4,0.7,0.7,1.5,0.7,2.3C118.2,81.8,118.2,89.6,118.2,89.6z"/>
<path class="st0" d="M123,76.8h-2.8V74h2.8V76.8z M123,89.6h-2.8V78.1h2.8V89.6z"/>
<path class="st0" d="M135.5,78.1L131,89.6h-3.4l-4.3-11.5h3.3l2.8,8.1l2.9-8.1H135.5z"/>
<path class="st0" d="M144.9,89.7H140c-1.2,0-2.4-0.6-3.1-1.7c-0.9-1.1-1.3-2.5-1.3-3.9c0-1.5,0.5-3,1.4-4.2c0.7-1.1,1.9-1.7,3.2-1.8
	h4.6v2.3h-3.4c-0.4,0-0.7,0-1.1,0.1c-0.3,0.1-0.6,0.2-0.8,0.5c-0.5,0.5-0.7,1.1-0.7,1.8h6v2.4h-6c0,0.3,0,0.6,0.1,0.9
	c0.1,0.3,0.2,0.5,0.5,0.7c0.2,0.2,0.5,0.4,0.8,0.5c0.4,0.1,0.8,0.1,1.2,0.1h3.5L144.9,89.7L144.9,89.7z"/>
<path class="st0" d="M152.7,80.6h-3.1v9h-2.7V78.1h2.8v1.6c0.1-0.4,0.3-0.7,0.5-1c0.2-0.3,0.5-0.5,0.8-0.6c0.2-0.1,0.3-0.1,0.5-0.2
	c0.2,0,0.4-0.1,0.6-0.1c0.2,0,0.4,0,0.6,0.1L152.7,80.6z"/>
<path class="st0" d="M163.8,86.1c0,0.9-0.3,1.8-0.8,2.5c-0.5,0.7-1.3,1.1-2.1,1h-6.9v-2.1h5.6c0.4,0,0.7-0.1,1-0.3
	c0.3-0.2,0.4-0.6,0.4-0.9c0-1-0.6-1.4-1.8-1.4h-2.9c-0.7-0.1-1.4-0.4-1.8-1c-0.5-0.6-0.8-1.3-0.8-2.1c0-0.9,0.2-1.8,0.6-2.6
	c0.5-0.7,1.3-1.2,2.2-1.1h6.6v2.2h-5.8c-0.2,0-0.5,0.2-0.6,0.4c-0.2,0.2-0.2,0.5-0.2,0.8c0,0.3,0.1,0.6,0.3,0.9
	c0.2,0.2,0.5,0.4,0.8,0.4h3.1c0.9,0,1.7,0.3,2.3,1C163.5,84.3,163.8,85.2,163.8,86.1z"/>
<path class="st0" d="M168.1,76.8h-2.8V74h2.8V76.8z M168.1,89.6h-2.8V78.1h2.8V89.6z"/>
<path class="st0" d="M176.3,80.5h-2.7v5.2c0,0.4,0.1,0.9,0.4,1.2c0.4,0.3,0.8,0.5,1.3,0.5h0.8v2.2h-2.6c-0.8,0-1.5-0.3-2-0.9
	c-0.3-0.3-0.5-0.8-0.6-1.2c-0.1-0.5-0.1-1-0.1-1.6v-5.4h-1.8v-2.4h1.8v-4h2.7v4h2.7L176.3,80.5L176.3,80.5z"/>
<path class="st0" d="M187.7,78.1v12c0,0.5-0.1,0.9-0.3,1.4c-0.2,0.4-0.4,0.8-0.7,1.1c-0.4,0.4-0.9,0.7-1.4,0.9
	c-0.6,0.2-1.2,0.3-1.8,0.3H178v-2.4h5.7c0.3,0,0.5-0.1,0.7-0.3c0.3-0.2,0.5-0.6,0.5-0.9v-0.4h-3.2c-0.5,0-1.1-0.1-1.6-0.2
	c-0.5-0.2-0.9-0.5-1.2-0.9c-0.7-0.8-1.1-1.8-1.1-2.9v-7.5h2.9v7.4c0,0.2,0,0.4,0.1,0.7c0.1,0.2,0.1,0.3,0.3,0.5
	c0.1,0.2,0.3,0.3,0.5,0.4c0.2,0.1,0.5,0.1,0.7,0.1h2.6v-9L187.7,78.1L187.7,78.1z"/>
<path class="st0" d="M209.2,83.8c0.3,3-1.9,5.8-4.9,6.1c-0.4,0-0.7,0-1.1,0c-1.5,0.1-3-0.4-4.2-1.3c-1.2-1-1.7-2.6-1.7-4.8
	c-0.1-1.6,0.6-3.2,1.9-4.3c1.2-1,2.7-1.5,4.2-1.4c1.6,0,3.1,0.5,4.2,1.5C208.7,80.7,209.3,82.2,209.2,83.8z M206.1,83.8
	c0-0.9-0.3-1.7-0.8-2.3c-0.5-0.6-1.3-1-2.1-1c-0.8,0-1.5,0.3-2,1c-0.6,0.7-0.9,1.6-0.8,2.4c0,1,0.3,1.9,0.8,2.7c0.5,0.7,1.3,1,2.1,1
	c0.9,0.1,1.7-0.3,2.2-1.1C205.9,85.7,206.2,84.7,206.1,83.8z"/>
<path class="st0" d="M218.2,76.4h-1.2c-0.3,0-0.6,0-0.8,0.1c-0.2,0-0.4,0.1-0.5,0.3c-0.1,0.1-0.1,0.3-0.2,0.5c0,0.2-0.1,0.4-0.1,0.6
	v0.6h2.8v2.3h-2.8v8.9h-2.9v-8.9h-2v-2.3h2V77c0-0.7,0.2-1.4,0.7-2c0.2-0.3,0.5-0.6,0.9-0.7c0.4-0.2,0.8-0.2,1.2-0.2h3L218.2,76.4
	L218.2,76.4z"/>
<path class="st0" d="M231.1,89.6h-3.7V74h3.7V89.6z"/>
<path class="st0" d="M242.8,89.6H240V82c0-0.2,0-0.4-0.1-0.5c-0.1-0.2-0.2-0.3-0.3-0.5c-0.2-0.2-0.6-0.4-0.9-0.4h-2.7v9h-2.8V78.1
	h5.3c0.7,0,1.4,0,2.1,0.2c0.7,0.2,1.2,0.6,1.6,1.2c0.4,0.7,0.7,1.5,0.7,2.3L242.8,89.6L242.8,89.6z"/>
<path class="st0" d="M252.2,76.4H251c-0.3,0-0.6,0-0.8,0.1c-0.2,0-0.4,0.1-0.5,0.3c-0.1,0.1-0.2,0.3-0.2,0.5c0,0.2-0.1,0.4-0.1,0.6
	v0.6h2.8v2.3h-2.8v8.9h-2.9v-8.9h-2v-2.3h2V77c0-0.7,0.2-1.4,0.7-2c0.2-0.3,0.5-0.6,0.9-0.7c0.4-0.2,0.8-0.2,1.2-0.2h3L252.2,76.4
	L252.2,76.4z"/>
<path class="st0" d="M265.2,83.8c0.3,3-1.9,5.8-4.9,6.1c-0.4,0-0.7,0-1.1,0c-1.5,0.1-3-0.4-4.2-1.3c-1.2-1-1.7-2.6-1.7-4.8
	c-0.1-1.6,0.6-3.2,1.9-4.3c1.2-1,2.6-1.5,4.1-1.4c1.6-0.1,3.1,0.5,4.3,1.5C264.7,80.7,265.3,82.2,265.2,83.8z M262.1,83.8
	c0-0.9-0.3-1.7-0.8-2.4c-0.5-0.6-1.3-1-2.1-1c-0.8,0-1.5,0.4-2,1c-0.6,0.7-0.9,1.6-0.8,2.4c0,1,0.3,1.9,0.8,2.7c0.5,0.7,1.3,1,2.1,1
	c0.9,0.1,1.7-0.3,2.2-1.1C261.9,85.7,262.1,84.7,262.1,83.8z"/>
<path class="st0" d="M272.6,80.6h-3.1v9h-2.8V78.1h2.8v1.6c0.1-0.4,0.3-0.7,0.5-1c0.2-0.3,0.5-0.5,0.8-0.6c0.2-0.1,0.3-0.1,0.5-0.2
	c0.2,0,0.4-0.1,0.6-0.1c0.2,0,0.4,0,0.6,0.1L272.6,80.6z"/>
<path class="st0" d="M289,89.6h-2.7v-7.2c0-0.2,0-0.5-0.1-0.7c-0.1-0.2-0.2-0.4-0.3-0.5c-0.1-0.2-0.3-0.3-0.5-0.4
	c-0.2-0.1-0.4-0.1-0.6-0.1h-2v8.9h-2.7v-9H277v9h-2.8V78.1h11.1c0.6,0,1.1,0.1,1.7,0.2c0.4,0.2,0.8,0.5,1.1,0.9
	c0.3,0.3,0.5,0.7,0.7,1.1c0.2,0.4,0.3,0.8,0.3,1.2L289,89.6L289,89.6z"/>
<path class="st0" d="M301.1,89.6h-7.5c-0.8,0-1.6-0.3-2.1-0.9c-0.6-0.6-0.9-1.5-0.9-2.4c0-0.9,0.3-1.8,0.8-2.5c0.5-0.6,1.2-1,2-1
	h4.8v-0.6c0-0.2,0-0.3-0.1-0.5c-0.1-0.2-0.2-0.3-0.3-0.5c-0.1-0.2-0.3-0.4-0.6-0.5c-0.3-0.1-0.6-0.1-0.8-0.1h-5.2v-2.5h5.3
	c0.7,0,1.5,0.1,2.2,0.3c0.5,0.2,0.9,0.5,1.2,0.8c0.4,0.5,0.7,1,0.9,1.6c0.2,0.7,0.2,1.5,0.2,2.2L301.1,89.6L301.1,89.6z M298.3,87.2
	V85h-3.5c-0.3,0-0.6,0.1-0.8,0.3c-0.2,0.2-0.4,0.5-0.4,0.8c0,0.3,0.1,0.6,0.3,0.8c0.2,0.2,0.5,0.3,0.8,0.3L298.3,87.2z"/>
<path class="st0" d="M309.3,80.5h-2.7v5.2c0,0.4,0.1,0.9,0.4,1.2c0.4,0.3,0.8,0.5,1.3,0.5h0.8v2.2h-2.6c-0.8,0-1.5-0.3-2-0.9
	c-0.3-0.3-0.5-0.8-0.6-1.2c-0.1-0.5-0.1-1-0.1-1.6v-5.4h-1.8v-2.4h1.8v-4h2.7v4h2.7L309.3,80.5L309.3,80.5z"/>
<path class="st0" d="M313.5,76.8h-2.8V74h2.8V76.8z M313.5,89.6h-2.8V78.1h2.8V89.6z"/>
<path class="st0" d="M327.1,83.8c0.3,3-1.9,5.8-4.9,6.1c-0.4,0-0.7,0-1.1,0c-1.5,0.1-3-0.4-4.2-1.3c-1.2-1-1.7-2.6-1.7-4.8
	c-0.1-1.6,0.6-3.2,1.9-4.3c1.2-1,2.7-1.5,4.2-1.4c1.6-0.1,3.1,0.5,4.3,1.5C326.6,80.7,327.2,82.2,327.1,83.8z M324,83.8
	c0-0.9-0.3-1.7-0.8-2.4c-0.5-0.6-1.3-1-2.1-1c-0.8,0-1.6,0.3-2.1,1c-0.6,0.7-0.9,1.6-0.8,2.4c0,1,0.3,1.9,0.8,2.7
	c0.5,0.6,1.3,1,2.1,1c0.9,0.1,1.7-0.3,2.2-1.1C323.8,85.7,324.1,84.8,324,83.8L324,83.8z"/>
<path class="st0" d="M338.4,89.6h-2.8V82c0-0.2,0-0.4-0.1-0.5c-0.1-0.2-0.2-0.3-0.3-0.5c-0.2-0.2-0.6-0.4-0.9-0.4h-2.7v9h-2.8V78.1
	h5.3c0.7,0,1.4,0,2.1,0.2c0.7,0.2,1.2,0.6,1.6,1.2c0.4,0.7,0.7,1.5,0.7,2.3L338.4,89.6L338.4,89.6z"/>
<path class="st0" d="M360.8,76.7h-5.2v13h-3.3v-13h-5.1V74h13.6L360.8,76.7L360.8,76.7z"/>
<path class="st0" d="M370.7,89.7h-4.9c-1.2,0-2.4-0.6-3.1-1.7c-0.9-1.1-1.3-2.5-1.3-3.9c0-1.5,0.5-3,1.4-4.2
	c0.7-1.1,1.9-1.7,3.2-1.8h4.7v2.3h-3.4c-0.4,0-0.7,0-1.1,0.1c-0.3,0.1-0.6,0.2-0.8,0.5c-0.5,0.5-0.7,1.1-0.7,1.8h6v2.4h-6
	c0,0.3,0,0.6,0.1,0.9c0.1,0.3,0.2,0.5,0.5,0.7c0.2,0.2,0.5,0.4,0.8,0.5c0.4,0.1,0.8,0.1,1.2,0.1h3.4
	C370.7,87.5,370.7,89.7,370.7,89.7z"/>
<path class="st0" d="M381.8,89.6h-4.4c-1.4,0.1-2.8-0.5-3.8-1.6c-1-1.2-1.5-2.7-1.4-4.2c-0.1-1.5,0.4-2.9,1.3-4.1
	c1-1.2,2.4-1.8,3.9-1.7h4.3v2.7h-3.9c-0.7,0-1.4,0.4-1.9,1c-1,1.3-1,3.2,0,4.5c0.4,0.6,1.1,0.9,1.8,0.9h4L381.8,89.6L381.8,89.6z"/>
<path class="st0" d="M393.2,82v7.6h-2.8v-7c0-0.2,0-0.5,0-0.7c0-0.3-0.1-0.6-0.3-0.8c-0.2-0.2-0.4-0.3-0.6-0.4
	c-0.2-0.1-0.5-0.1-0.8-0.1h-2.4v9h-2.8V74h2.8v4h3.4c0.5,0,0.9,0,1.4,0.2c0.4,0.2,0.8,0.4,1.1,0.7c0.4,0.4,0.6,0.8,0.8,1.3
	C393.2,80.8,393.2,81.4,393.2,82z"/>
<path class="st0" d="M404.9,89.6h-2.8V82c0-0.2,0-0.4-0.1-0.5c-0.1-0.2-0.2-0.3-0.3-0.5c-0.2-0.2-0.6-0.4-0.9-0.4H398v9h-2.8V78.1
	h5.3c0.7,0,1.4,0,2.1,0.2c0.7,0.2,1.2,0.6,1.6,1.2c0.4,0.7,0.7,1.5,0.7,2.3V89.6z"/>
<path class="st0" d="M418.5,83.8c0.3,3-1.9,5.8-4.9,6.1c-0.4,0-0.7,0-1.1,0c-1.5,0.1-3-0.4-4.2-1.3c-1.1-1-1.7-2.6-1.7-4.8
	c-0.1-1.6,0.6-3.2,1.9-4.3c1.2-1,2.7-1.5,4.2-1.4c1.6-0.1,3.1,0.5,4.3,1.5C418,80.7,418.6,82.2,418.5,83.8z M415.4,83.8
	c0-0.9-0.2-1.7-0.8-2.4c-0.5-0.6-1.3-1-2.1-1c-0.8,0-1.6,0.3-2.1,1c-0.6,0.7-0.9,1.6-0.8,2.4c0,1,0.3,1.9,0.8,2.7
	c0.5,0.7,1.3,1,2.1,1c0.9,0.1,1.7-0.3,2.2-1.1C415.2,85.7,415.5,84.8,415.4,83.8L415.4,83.8z"/>
<path class="st0" d="M422.9,89.6h-2.8V74h2.8V89.6z"/>
<path class="st0" d="M436.5,83.8c0.3,3-1.9,5.8-4.9,6.1c-0.4,0-0.7,0-1.1,0c-1.5,0.1-3-0.4-4.2-1.3c-1.2-1-1.7-2.6-1.7-4.8
	c-0.1-1.6,0.6-3.2,1.9-4.3c1.2-1,2.6-1.5,4.1-1.4c1.6-0.1,3.1,0.5,4.3,1.5C436,80.7,436.6,82.2,436.5,83.8z M433.4,83.8
	c0-0.9-0.2-1.7-0.8-2.4c-0.5-0.6-1.3-1-2.1-1c-0.8,0-1.6,0.3-2,1c-0.6,0.7-0.9,1.6-0.8,2.4c0,1,0.3,1.9,0.8,2.7c0.5,0.7,1.3,1,2.1,1
	c0.9,0.1,1.7-0.3,2.2-1.1C433.2,85.7,433.4,84.8,433.4,83.8L433.4,83.8z"/>
<path class="st0" d="M448.6,89.2c0,0.6,0,1.3-0.2,1.9c-0.1,0.5-0.4,1-0.8,1.5c-0.3,0.4-0.8,0.8-1.3,1c-0.5,0.2-1.1,0.3-1.7,0.3h-6
	v-2.5h5.4c0.2,0,0.4,0,0.5-0.1c0.2-0.1,0.3-0.1,0.4-0.3c0.1-0.1,0.3-0.2,0.4-0.4c0.1-0.1,0.2-0.3,0.2-0.5v-0.5h-3.6
	c-1.3,0-2.5-0.7-3.2-1.8c-0.8-1.2-1.2-2.6-1.2-4c0-1.5,0.4-2.9,1.3-4.1c0.8-1.1,2-1.7,3.3-1.7h6.3L448.6,89.2L448.6,89.2z
	 M445.7,87.1v-6.4h-2.5c-0.7,0-1.3,0.4-1.7,1c-0.4,0.8-0.6,1.6-0.6,2.5c0,0.7,0.2,1.4,0.5,2c0.5,0.7,1.2,1,2,1H445.7z"/>
<path class="st0" d="M460.5,78.1v12c0,0.5-0.1,0.9-0.3,1.4c-0.2,0.4-0.4,0.8-0.7,1.1c-0.4,0.4-0.9,0.7-1.4,0.9
	c-0.6,0.2-1.2,0.3-1.8,0.3h-5.5v-2.4h5.7c0.3,0,0.5-0.1,0.7-0.3c0.3-0.2,0.5-0.6,0.5-0.9v-0.4h-3.2c-0.5,0-1.1-0.1-1.6-0.2
	c-0.5-0.2-0.9-0.5-1.2-0.9c-0.7-0.8-1.1-1.8-1.1-2.9v-7.5h2.9v7.4c0,0.2,0,0.4,0.1,0.7c0.1,0.2,0.1,0.4,0.3,0.5
	c0.1,0.2,0.3,0.3,0.5,0.4c0.2,0.1,0.5,0.1,0.7,0.1h2.6v-9L460.5,78.1L460.5,78.1z"/>
<path class="st0" d="M485.4,83.2h-2.3c-0.1,1.7-0.8,3.4-2,4.6c-1.4,1.4-3.4,2.1-5.4,2c-2,0-3.4-0.4-4.3-1.3
	c-0.8-0.8-1.2-1.9-1.1-3.1c0-0.7,0.1-1.4,0.4-2c0.3-0.6,0.8-1.1,1.4-1.5c-0.7-0.4-1.2-0.9-1.5-1.6c-0.3-0.8-0.5-1.6-0.5-2.4
	c0-1,0.3-2,1-2.8c0.6-0.7,1.5-1.2,2.4-1.2h6.2v2.9h-4.3c-0.4,0-0.9,0.2-1.2,0.5c-0.3,0.3-0.5,0.7-0.5,1.1c0,0.5,0.2,1.1,0.5,1.5
	c0.3,0.4,0.8,0.6,1.2,0.6h1v2.7h-1.1c-0.4,0-0.9,0.2-1.1,0.5c-0.3,0.3-0.5,0.8-0.5,1.3c-0.1,0.6,0.3,1.3,0.8,1.6
	c0.6,0.3,1.2,0.5,1.9,0.5c0.9,0,1.8-0.4,2.5-1.1c0.8-0.7,1.2-1.7,1.2-2.8H478v-2.8h7.4L485.4,83.2L485.4,83.2z"/>
<path class="st0" d="M510.1,84.8c0,1.3-0.4,2.5-1.2,3.4c-0.8,0.9-1.9,1.4-3.1,1.4h-9.9v-2.8h8.2c0.5,0,1-0.1,1.4-0.4
	c0.4-0.3,0.7-0.8,0.6-1.3c0-1.3-0.8-2-2.5-2h-4.1c-1.2,0-2.3-0.4-3.1-1.2c-0.9-0.8-1.4-1.9-1.4-3.1c-0.1-1.3,0.4-2.5,1.3-3.4
	c0.9-0.9,2.2-1.4,3.4-1.3h9.5v2.7h-8.4c-0.4,0-0.8,0.2-1.1,0.5c-0.4,0.3-0.6,0.8-0.6,1.2c0,1,0.8,1.8,1.9,1.9h4.5
	c1.2-0.1,2.4,0.4,3.3,1.2C509.7,82.4,510.1,83.6,510.1,84.8z"/>
<path class="st0" d="M520.8,89.6h-4.4c-1.4,0.1-2.8-0.5-3.8-1.6c-1-1.2-1.5-2.7-1.4-4.2c-0.1-1.5,0.4-2.9,1.3-4.1
	c1-1.2,2.4-1.8,3.9-1.7h4.3v2.7h-3.9c-0.7,0-1.4,0.4-1.9,1c-1,1.3-1,3.1,0,4.5c0.4,0.6,1.1,1,1.9,0.9h4L520.8,89.6L520.8,89.6z"/>
<path class="st0" d="M525.3,76.8h-2.8V74h2.8V76.8z M525.3,89.6h-2.8V78.1h2.8V89.6z"/>
<path class="st0" d="M536.2,89.7h-4.9c-1.2,0-2.4-0.6-3.1-1.7c-0.9-1.1-1.3-2.5-1.3-3.9c0-1.5,0.5-3,1.4-4.2
	c0.7-1.1,1.9-1.7,3.2-1.8h4.6v2.3h-3.4c-0.4,0-0.7,0-1.1,0.1c-0.3,0.1-0.6,0.3-0.8,0.5c-0.5,0.5-0.7,1.1-0.7,1.8h6v2.4h-6
	c0,0.3,0,0.6,0.1,0.9c0.1,0.3,0.2,0.5,0.5,0.7c0.2,0.2,0.5,0.4,0.8,0.5c0.4,0.1,0.8,0.1,1.2,0.1h3.5L536.2,89.7L536.2,89.7z"/>
<path class="st0" d="M547.8,89.6H545V82c0-0.2,0-0.4-0.1-0.5c-0.1-0.2-0.2-0.3-0.3-0.5c-0.2-0.2-0.6-0.4-0.9-0.4h-2.7v9h-2.8V78.1
	h5.3c0.7,0,1.4,0,2.1,0.2c0.7,0.2,1.2,0.6,1.6,1.2c0.5,0.7,0.7,1.5,0.7,2.3V89.6z"/>
<path class="st0" d="M559,89.6h-4.4c-1.4,0.1-2.8-0.5-3.8-1.6c-1-1.2-1.5-2.7-1.4-4.2c-0.1-1.5,0.4-2.9,1.3-4.1
	c1-1.2,2.4-1.8,3.9-1.7h4.3v2.7h-3.9c-0.7,0-1.4,0.4-1.9,1c-1,1.3-1,3.2,0,4.5c0.4,0.6,1.1,0.9,1.8,0.9h4V89.6z"/>
<path class="st0" d="M569.6,89.7h-4.9c-1.2,0-2.4-0.6-3.1-1.7c-0.9-1.1-1.3-2.5-1.3-3.9c0-1.5,0.5-3,1.4-4.2
	c0.7-1.1,1.9-1.7,3.2-1.8h4.6v2.3h-3.4c-0.4,0-0.7,0-1.1,0.1c-0.3,0.1-0.6,0.3-0.8,0.5c-0.5,0.5-0.7,1.1-0.7,1.8h6v2.4h-6
	c0,0.3,0,0.6,0.1,0.9c0.1,0.3,0.2,0.5,0.5,0.7c0.2,0.2,0.5,0.4,0.8,0.5c0.4,0.1,0.8,0.1,1.2,0.1h3.5L569.6,89.7L569.6,89.7z"/>
<path class="st0" d="M581.2,86.1c0,0.9-0.3,1.8-0.8,2.5c-0.5,0.7-1.3,1.1-2.2,1h-6.8v-2.1h5.6c0.4,0,0.7-0.1,1-0.3
	c0.3-0.2,0.4-0.6,0.4-0.9c0-1-0.6-1.4-1.8-1.4h-2.9c-0.7,0-1.4-0.4-1.8-1c-0.5-0.6-0.8-1.3-0.8-2.1c0-0.9,0.2-1.8,0.6-2.6
	c0.5-0.7,1.3-1.2,2.2-1.1h6.6v2.2h-5.8c-0.2,0-0.5,0.2-0.6,0.4c-0.2,0.2-0.3,0.5-0.3,0.8c0,0.3,0.1,0.6,0.3,0.9
	c0.2,0.2,0.5,0.4,0.8,0.4h3.1c0.9,0,1.7,0.3,2.3,1C580.9,84.3,581.2,85.2,581.2,86.1z"/>
<g>
	<path class="st1" d="M441.2,61.9l-1.4,1.7h-1.2l4.8-5.5h1.4l1.3,5.4h-1.2l-0.4-1.7L441.2,61.9z M444.3,61.4l-0.4-1.6
		c-0.1-0.3-0.1-0.7-0.2-1l0,0c-0.3,0.3-0.5,0.7-0.7,1l-1.4,1.6L444.3,61.4z"/>
	<path class="st1" d="M447.1,63.7l0.9-2.8c0.2-0.4,0.2-0.8,0.3-1.1h1l-0.2,0.8l0,0c0.7-0.6,1.6-0.9,2.5-0.9c0.8,0,1.7,0.3,1.7,1.1
		c0,0.2-0.1,0.4-0.1,0.6l-0.7,2.3h-1.1l0.7-2.3c0.1-0.2,0.1-0.3,0.1-0.5c0-0.4-0.3-0.7-1.1-0.7c-1,0-1.9,0.6-2.3,1.5l-0.6,1.9
		L447.1,63.7z"/>
	<path class="st1" d="M457,63.7l1.3-3.9h1.1l-1.3,3.9H457z M458.5,58.7c0-0.3,0.3-0.4,0.7-0.4s0.7,0.2,0.7,0.4s-0.3,0.4-0.8,0.4
		S458.5,58.9,458.5,58.7z"/>
	<path class="st1" d="M460.2,63.7l0.9-2.8c0.2-0.4,0.2-0.8,0.3-1.1h1l-0.2,0.8l0,0c0.7-0.6,1.6-0.9,2.5-0.9c0.8,0,1.7,0.3,1.7,1.1
		c0,0.2-0.1,0.4-0.1,0.6l-0.7,2.3h-1.1l0.7-2.3c0.1-0.2,0.1-0.3,0.1-0.5c0-0.4-0.3-0.7-1-0.7c-1,0-1.9,0.6-2.2,1.5l-0.6,1.9
		L460.2,63.7z"/>
	<path class="st1" d="M467.5,63.6l1.3-3.9h1.1l-1.3,3.9H467.5z M469,58.6c0-0.3,0.3-0.5,0.7-0.5s0.7,0.2,0.7,0.4s-0.3,0.4-0.8,0.4
		S469,58.9,469,58.6z"/>
	<path class="st1" d="M473.7,58.7l-0.3,1.1h1.6l-0.2,0.5h-1.6l-0.6,1.9c-0.1,0.2-0.1,0.4-0.1,0.6c0,0.2,0.2,0.4,0.6,0.4
		c0.2,0,0.4,0,0.5,0l-0.1,0.5c-0.3,0.1-0.6,0.1-0.9,0.1c-1,0-1.4-0.4-1.4-0.7c0-0.2,0-0.5,0.1-0.7l0.7-2h-1l0.2-0.5h1l0.3-1
		L473.7,58.7z"/>
	<path class="st1" d="M475,63.6l1.3-3.9h1.1l-1.3,3.9H475z M476.5,58.6c0-0.3,0.3-0.5,0.7-0.5s0.7,0.2,0.7,0.4
		c0,0.2-0.3,0.4-0.8,0.4S476.5,58.9,476.5,58.6z"/>
	<path class="st1" d="M482.6,63.6c0-0.3,0.1-0.7,0.2-1l0,0c-0.7,0.7-1.6,1.1-2.6,1.1c-1.2,0-1.9-0.6-1.9-1.3c0-1.4,1.7-2.8,4.6-2.8
		c0.6,0,1.2,0.1,1.8,0.2l-0.7,2c-0.2,0.6-0.3,1.2-0.3,1.8L482.6,63.6z M483.3,60.2c-0.3,0-0.5-0.1-0.8-0.1c-1.7,0-3.1,1.1-3.2,2.2
		c0,0.4,0.3,0.9,1.1,0.9c1.1-0.1,2-0.8,2.4-1.8L483.3,60.2z"/>
	<path class="st1" d="M488.4,58.7l-0.3,1.1h1.6l-0.2,0.5h-1.6l-0.6,1.9c-0.1,0.2-0.1,0.4-0.1,0.6c0,0.2,0.2,0.4,0.6,0.4
		c0.2,0,0.4,0,0.5,0l-0.1,0.5c-0.3,0.1-0.6,0.1-0.9,0.1c-1,0-1.4-0.4-1.4-0.7c0-0.2,0.1-0.5,0.1-0.7l0.7-2h-1l0.2-0.5h1l0.3-0.9
		L488.4,58.7z"/>
	<path class="st1" d="M489.7,63.6l1.3-3.9h1.1l-1.3,3.9H489.7z M491.2,58.6c0-0.3,0.3-0.4,0.7-0.4c0.4,0,0.7,0.2,0.7,0.4
		c0,0.2-0.3,0.4-0.8,0.4C491.4,59,491.2,58.9,491.2,58.6z"/>
	<path class="st1" d="M494.3,59.7l0.6,2.2c0.1,0.4,0.2,0.7,0.2,1h0c0.2-0.3,0.5-0.6,0.7-0.9l2-2.3h1.3l-3.7,3.9h-1.1l-1.2-3.9
		L494.3,59.7z"/>
	<path class="st1" d="M503.8,63.4c-0.7,0.2-1.4,0.3-2.2,0.3c-1.8,0-2.5-0.7-2.5-1.6c0-1.2,1.5-2.5,3.6-2.5c1.3,0,2,0.4,2,1
		c0,1-2,1.3-4.4,1.3c0,0.2,0,0.5,0.1,0.7c0.4,0.4,0.9,0.6,1.5,0.5c0.6,0,1.2-0.1,1.8-0.3L503.8,63.4z M502.5,60.1
		c-0.9,0-1.7,0.4-2.2,1.2c1.8,0,3.2-0.1,3.2-0.7C503.6,60.3,503.2,60.1,502.5,60.1z"/>
	<path class="st1" d="M514.2,61.2c0,1.2-1.4,2.5-3.7,2.5c-1.7,0-2.6-0.7-2.6-1.6c0-1.3,1.5-2.5,3.7-2.5
		C513.4,59.6,514.2,60.4,514.2,61.2z M509,62.1c0,0.6,0.6,1.1,1.6,1.1c1.2,0.1,2.2-0.8,2.4-1.9c0-0.4-0.4-1.1-1.6-1.1
		C510,60.1,509,61.2,509,62.1z"/>
	<path class="st1" d="M515.1,63.6l1.1-3.4h-0.9l0.2-0.5h0.9l0.1-0.2c0.2-0.6,0.6-1.1,1.1-1.4c0.5-0.2,1-0.4,1.6-0.3
		c0.3,0,0.6,0,0.9,0.1l-0.3,0.5c-0.2-0.1-0.4-0.1-0.7-0.1c-0.7-0.1-1.4,0.4-1.5,1.2l-0.1,0.2h1.5l-0.2,0.5h-1.4l-1.1,3.4H515.1z"/>
	<path class="st2" d="M526.9,58.3l-0.8,3.5c-0.1,0.3-0.2,0.7-0.2,1.1c0,0.2,0.1,0.5,0.2,0.7c0.3,0.2,0.7,0.3,1,0.2l-0.1,0.3H522
		l0.1-0.3c0.3,0,0.6,0,0.9-0.2c0.2-0.1,0.3-0.3,0.4-0.5c0.2-0.4,0.3-0.9,0.4-1.3l1.9-8c0.1-0.4,0.2-0.8,0.2-1.1
		c0-0.2-0.1-0.4-0.3-0.6c-0.3-0.2-0.6-0.3-0.9-0.3l0.1-0.3h4.1c0.8-0.1,1.7,0.1,2.4,0.5c0.8,0.6,1.2,1.5,1.2,2.5
		c0,1-0.4,2.1-1.2,2.8c-0.8,0.8-1.9,1.3-3.1,1.2C527.8,58.4,527.4,58.3,526.9,58.3z M527.1,57.5c0.3,0,0.6,0.1,0.8,0.1
		c0.7,0,1.4-0.5,1.7-1.2c0.4-0.8,0.6-1.6,0.6-2.4c0-0.5-0.1-1-0.4-1.3c-0.3-0.3-0.7-0.5-1.1-0.5h-0.4L527.1,57.5z"/>
	<path class="st2" d="M536.7,57.2h3.8l0.8-3.5c0.1-0.4,0.2-0.7,0.2-1.1c0-0.2-0.1-0.4-0.2-0.6c-0.3-0.2-0.6-0.3-1-0.3l0.1-0.3h5.2
		l-0.1,0.3c-0.4,0-0.8,0.1-1.2,0.4c-0.4,0.5-0.6,1-0.7,1.6l-1.9,8.1c-0.1,0.4-0.2,0.7-0.2,1.1c0,0.2,0.1,0.4,0.2,0.5
		c0.3,0.2,0.6,0.3,1,0.3l-0.1,0.3h-5.1l0.1-0.3c0.4,0,0.8-0.1,1.1-0.4c0.3-0.5,0.6-1,0.6-1.6l0.9-3.8h-3.8l-0.9,3.8
		c-0.1,0.4-0.2,0.8-0.2,1.1c0,0.2,0.1,0.4,0.2,0.5c0.3,0.2,0.6,0.3,0.9,0.2l-0.1,0.3h-5l0.1-0.3c0.4,0,0.8-0.1,1.1-0.3
		c0.3-0.5,0.5-1,0.6-1.6l1.9-8.1c0.1-0.4,0.2-0.7,0.2-1.1c0-0.2-0.1-0.4-0.2-0.6c-0.3-0.2-0.6-0.3-1-0.3l0.1-0.3h5.1l-0.1,0.3
		c-0.4,0-0.8,0.1-1.1,0.4c-0.3,0.5-0.6,1-0.7,1.6L536.7,57.2z"/>
	<path class="st2" d="M548.8,58.3l-0.8,3.5c-0.1,0.3-0.2,0.7-0.2,1.1c0,0.2,0.1,0.5,0.2,0.7c0.3,0.2,0.7,0.3,1,0.2l-0.1,0.3h-5.1
		l0.1-0.3c0.3,0,0.6,0,0.9-0.2c0.2-0.1,0.3-0.3,0.4-0.5c0.2-0.4,0.3-0.9,0.4-1.3l1.9-8c0.1-0.4,0.2-0.8,0.2-1.1
		c0-0.2-0.1-0.4-0.3-0.6c-0.3-0.2-0.6-0.3-0.9-0.3l0.1-0.3h4.1c0.8-0.1,1.7,0.1,2.4,0.5c0.8,0.6,1.2,1.5,1.2,2.5c0,1-0.4,2-1.1,2.8
		c-0.8,0.8-1.9,1.3-3.1,1.2C549.7,58.4,549.2,58.3,548.8,58.3z M548.9,57.5c0.3,0,0.5,0.1,0.8,0.1c0.7,0,1.4-0.5,1.7-1.2
		c0.4-0.8,0.6-1.6,0.6-2.4c0-0.5-0.1-1-0.4-1.3c-0.3-0.3-0.7-0.5-1.1-0.5h-0.4L548.9,57.5z"/>
	<path class="st2" d="M564.5,56.8c0,0.1,0,0.1,0,0.2c0,0,0,0.1-0.1,0.2c-0.3-0.2-0.6-0.4-1-0.4c-0.8,0.1-1.6,0.4-2.3,0.7
		c-0.8,0.2-1.5,0.6-2,1.2c-0.1,0.1-0.2,0.4-0.5,1c-0.1,0.3-0.2,0.5-0.3,0.6c0.1,0,0.2,0.1,0.3,0.1c0.2,0,0.5-0.1,0.7-0.1
		c0.2-0.1,0.5-0.1,0.7-0.1c0.2,0,0.3,0,0.5,0c0.2,0,0.3,0.1,0.4,0.3l-1.5,0.4c-0.5,0.1-1,0.3-1.5,0.6c-0.3,0.2-0.6,0.6-0.6,1
		c-0.1,0.2-0.2,0.7-0.4,1.3c-0.2,0.4-0.4,0.6-0.7,0.6V64c0.1-0.5,0.2-1,0.5-1.4c0.2-0.3,0.4-1,0.9-1.8c0.2-0.4,0.4-0.8,0.5-1.3
		c0-0.1,0-0.2-0.1-0.3c-0.1-0.1-0.2-0.2-0.3-0.4v-0.2l0.2-0.2c0.7-0.2,1.3-0.4,2-0.7l1.9-0.9c0.6-0.3,1.3-0.5,2.1-0.5
		C564.2,56.4,564.4,56.5,564.5,56.8z"/>
	<path class="st2" d="M565.3,64.1c-0.1,0.3-0.3,0.5-0.4,0.5s-0.4-0.2-0.6-0.5c-0.2-0.3-0.3-0.5-0.4-0.8c-0.5,0.3-0.8,0.4-1,0.5
		c-0.3,0.2-0.7,0.3-1,0.3c-0.4,0-0.7-0.3-0.7-0.8c0-0.9,0.5-1.8,1.2-2.3c0.3-0.3,0.7-0.5,1-0.7c0.3-0.2,0.7-0.4,1.1-0.5
		c0.2,0,0.3,0.1,0.4,0.3c0.1,0.2,0.2,0.4,0.2,0.6c0,0.5-0.2,1-0.4,1.4c-0.2,0.3-0.3,0.7-0.4,1c0,0.2,0,0.5,0.1,0.7
		C564.6,63.9,564.9,64,565.3,64.1z M565,60.7c0-0.2-0.2-0.4-0.5-0.4c-0.5,0-0.9,0.1-1.3,0.4c-0.4,0.3-0.7,0.6-1,1
		c-0.3,0.4-0.6,0.8-0.6,1.3c0,0.2,0.1,0.3,0.2,0.4c0.1,0.1,0.3,0.1,0.4,0.1c0.5,0,1-0.2,1.3-0.6c0.3-0.4,0.5-0.8,0.7-1.2
		c0.2-0.4,0.5-0.6,0.7-0.6C565,61.1,565,60.9,565,60.7L565,60.7z M565.3,64.3L565.3,64.3L565.3,64.3L565.3,64.3L565.3,64.3
		L565.3,64.3L565.3,64.3L565.3,64.3L565.3,64.3L565.3,64.3L565.3,64.3L565.3,64.3L565.3,64.3z"/>
	<path class="st2" d="M572,60.9c0,0.4-0.1,0.8-0.3,1.1l-0.5,0.9c-0.2,0.3-0.3,0.6-0.4,1c0,0.1,0,0.2,0,0.3c0,0.1,0,0.1,0,0.2
		c0,0.1-0.1,0.3-0.2,0.3c-0.2-0.1-0.4-0.3-0.4-0.7c0-0.4,0.1-0.8,0.3-1.2c0.3-0.6,0.6-1.2,0.7-1.8c-0.5,0.2-0.9,0.5-1.4,0.8
		c-0.3,0.2-0.7,0.5-1.2,0.9c-0.3,0.3-0.8,0.6-1.2,0.7h-0.1c0.2-0.4,0.4-0.7,0.7-1c0.2-0.2,0.3-0.5,0.3-0.8c0-0.1,0-0.2-0.1-0.3
		l-0.1-0.3c-0.5,0.3-0.9,0.7-1.2,1.1l-1.1,1.2c-0.4,0.4-0.7,0.6-0.9,0.6v-0.2c0.2-0.5,0.5-1,0.9-1.4c0.2-0.3,0.4-0.6,0.6-0.9
		c0.1-0.3,0.3-0.5,0.4-0.5c0.4-0.1,0.7-0.3,1-0.5c0.2-0.1,0.3-0.2,0.5-0.2c0.2,0,0.4,0.2,0.5,0.7c0,0.1,0.1,0.3,0.1,0.6l1.2-0.8
		c0.4-0.3,0.8-0.5,1.3-0.5C571.9,60.4,572,60.5,572,60.9z"/>
	<path class="st2" d="M573.5,61.1c-0.1,0.5-0.3,1.1-0.5,1.6l-0.2,0.5c0,0.1-0.1,0.3-0.3,0.3c-0.1,0-0.2,0.1-0.4,0c0-0.1,0-0.1,0-0.2
		c0-0.1,0-0.1,0-0.2c0-0.2,0.1-0.3,0.1-0.5c0.1-0.1,0.2-0.3,0.2-0.5c0.1-0.2,0.1-0.5,0.3-0.9c0.1-0.3,0.2-0.5,0.5-0.7
		C573.4,60.8,573.5,61,573.5,61.1z M574.3,58.3c0,0.2-0.1,0.4-0.4,0.4s-0.4-0.1-0.4-0.4c0-0.2,0-0.3,0.1-0.5
		c0.1-0.2,0.1-0.3,0.1-0.5c0.1,0.2,0.2,0.4,0.3,0.6c0,0.1,0.1,0.1,0.2,0.2C574.3,58.2,574.3,58.3,574.3,58.3z"/>
	<path class="st2" d="M577.7,57.5c0,0-0.2,0.5-0.6,1.3l-1.1,2.4c-0.5,1-0.7,1.6-0.7,1.8l-0.2,0.6c-0.1,0.3-0.2,0.4-0.4,0.4
		c-0.1,0-0.2,0-0.3-0.1l-0.1-0.2c0.1-0.6,0.4-1.1,0.6-1.6l1.1-2.1c0.4-0.6,0.6-1.3,0.8-2c0-0.1,0.1-0.3,0.1-0.6
		c0.1-0.2,0.2-0.3,0.3-0.5c0.1,0,0.2,0.1,0.2,0.2C577.7,57.3,577.7,57.4,577.7,57.5z"/>
	<path class="st2" d="M581.5,60c-0.1,0.4-0.2,0.8-0.5,1.1c-0.2,0.2-0.5,0.7-0.9,1.4c-0.3,0.4-0.5,0.8-0.5,1.2c0,0.1,0,0.2,0,0.2
		c-0.5,0.2-1,0.7-1.2,1.2l-1.3,2.3c-0.2-0.1-0.3-0.2-0.4-0.3c0.2-0.4,0.4-0.7,0.6-1.1c0.2-0.2,0.4-0.6,0.7-1
		c0.2-0.2,0.3-0.5,0.4-0.8c0-0.2-0.1-0.3-0.4-0.3h-0.2c-0.3,0-0.4-0.3-0.6-0.8c-0.1-0.4-0.1-0.8-0.1-1.1c0-0.6,0-1.1,0.1-1.7
		c0.3,0,0.5,0.3,0.5,1c0,0.1,0,0.3,0,0.5s0,0.4,0,0.5c0,0.8,0.3,1.2,0.9,1.2c0.2,0,0.5-0.3,0.8-0.9c0.1-0.2,0.4-0.8,1-1.8
		c0.2-0.5,0.5-1,0.9-1.4c0.1,0.1,0.1,0.1,0.2,0.2C581.5,59.9,581.5,59.9,581.5,60z"/>
</g>
<g>
	<g>
		<g>
			<g>
				<path class="st0" d="M29.9,20.7c0,1.6-0.7,2.8-2,3.5c-1,0.5-2.4,0.8-4.2,0.8c-1.8,0-3.2-0.3-4.3-0.9c-1.4-0.7-2.1-1.9-2.1-3.5
					v-8.1h3.2v7.8c0,1,0.4,1.7,1.1,2.1c0.5,0.3,1.2,0.5,1.9,0.5c1.3,0,2.2-0.3,2.7-0.8c0.4-0.4,0.6-1.1,0.6-1.9v-7.6h3.1V20.7z"/>
				<path class="st0" d="M35.3,24.9h-3.3V12.4h3.3V24.9z"/>
				<path class="st0" d="M48.4,14.5h-4.7v10.4h-2.9V14.5h-4.6v-2.1h12.2V14.5z"/>
				<path class="st0" d="M62.7,21c0,1.1-0.4,2-1.1,2.8c-0.7,0.7-1.7,1.1-2.8,1.1H50v-2.2h7.3c0.5,0,0.9-0.1,1.2-0.3
					c0.4-0.3,0.6-0.6,0.6-1.1c0-1.1-0.8-1.6-2.3-1.6h-3.7c-1.1,0-2-0.3-2.8-1c-0.8-0.7-1.2-1.5-1.2-2.5c0-1.1,0.4-2,1.2-2.7
					c0.8-0.7,1.8-1,3.1-1h8.5v2.1h-7.5c-0.3,0-0.7,0.1-1,0.4c-0.3,0.3-0.5,0.6-0.5,1c0,0.4,0.2,0.8,0.5,1.1c0.3,0.3,0.7,0.4,1.2,0.4
					h4.1c1.3,0,2.3,0.3,3,1C62.4,19.1,62.7,19.9,62.7,21z"/>
			</g>
			<g>
				<g>
					<g>
						<path class="st3" d="M39.4,66.6V48.4c0,0-2.4-5-11.6-9v19.4C27.8,58.9,35.4,60.7,39.4,66.6z"/>
						<path class="st3" d="M34.8,63.1c0,0-3.8-2.2-9-2.9V40.6l1.1,0.4v18.5C26.9,59.4,32.2,61,34.8,63.1z"/>
						<path class="st3" d="M37.3,66c0,0-5.3-2.9-14-3.4V42.3l1.6,0.2V61C24.9,61,33.2,61.8,37.3,66z"/>
					</g>
				</g>
				<g>
					<g>
						<path class="st3" d="M40.5,66.6V48.4c0,0,2.4-5,11.6-9v19.4C52.1,58.9,44.5,60.7,40.5,66.6z"/>
						<path class="st3" d="M45.1,63.1c0,0,3.8-2.2,9-2.9V40.6l-1.1,0.4v18.5C53.1,59.4,47.8,61,45.1,63.1z"/>
						<path class="st3" d="M42.7,66c0,0,5.3-2.9,14-3.4V42.3L55,42.5V61C55,61,46.7,61.8,42.7,66z"/>
					</g>
				</g>
			</g>
			<path class="st0" d="M39.6,44c0,0-2.7-1.6-2.6-3.6c0.2-2.1,1.4-2.8,1.8-3.6c0.4-0.9,0.3-2.3,0.3-2.3s1.9,0.8,2,3.7
				c0.6,0.2,0.9-1.7,0.9-1.7s0.9,1.1,0.8,3.5c-0.1,2.4-2.1,3.9-2.1,3.9s1-2,0.7-3.1c-0.3,0.9-1.1,0.9-1.1,0.9s1-2.4-0.9-3.5
				c-0.1,1.6-0.2,1.3-0.7,2.6C38.3,42.2,39.6,44,39.6,44z"/>
			<g>
				<g>
					<g>
						<path class="st0" d="M17.9,57.5c0,0-0.5-1.9,1.1-2.3C19,55.3,19.7,57.2,17.9,57.5z"/>
						<path class="st0" d="M30.8,73.9c-0.1-0.1-0.3-0.1-0.4-0.2c-0.1-0.1-0.3-0.2-0.4-0.2c0,0,0,0,0,0c-1,1.2-3,0.2-3,0.2
							c0.7-0.8,1.9-0.7,2.6-0.5c-0.1-0.1-0.2-0.1-0.3-0.2c-0.3-0.2-0.5-0.3-0.8-0.5c-0.3-0.2-0.5-0.3-0.7-0.5
							c-0.1-0.1-0.2-0.2-0.3-0.2c-1,1.1-2.9,0.2-2.9,0.2c0.7-0.8,1.8-0.7,2.5-0.5c0,0,0,0,0,0c-0.2-0.2-0.5-0.4-0.7-0.6
							c-0.2-0.2-0.5-0.4-0.7-0.6c-0.1,0-0.1-0.1-0.2-0.1c-1.1,1.1-2.9,0.1-2.8,0.1c0.7-0.8,1.9-0.6,2.5-0.4
							c-0.1-0.1-0.1-0.1-0.2-0.2c-0.2-0.2-0.4-0.4-0.7-0.6c-0.2-0.2-0.3-0.3-0.5-0.5c-1,1-2.7,0-2.7,0.1c0.6-0.8,1.7-0.6,2.3-0.5
							c-0.1-0.1-0.2-0.3-0.4-0.4c-0.1-0.1-0.2-0.2-0.3-0.3c-0.1-0.1-0.2-0.2-0.3-0.3c-0.1-0.2-0.3-0.4-0.4-0.5
							c-1.4,0.7-2.8-0.6-2.8-0.6c0.9-0.6,2-0.1,2.6,0.2c-0.3-0.4-0.6-0.8-0.8-1.2c-0.1-0.1-0.2-0.3-0.2-0.4
							c-1.6,0.3-2.6-1.1-2.6-1.1c0.9-0.3,1.7,0.1,2.3,0.5c-0.3-0.5-0.6-1-0.8-1.6c-1.7,0.3-2.7-1.3-2.7-1.3c1.1-0.3,2.1,0.5,2.5,1
							c-0.1-0.2-0.2-0.5-0.3-0.7c-0.1-0.2-0.2-0.5-0.3-0.7c0-0.1-0.1-0.2-0.1-0.2c-1.9-0.3-2.2-2.1-2.2-2.1c1.1,0.1,1.7,1,2,1.5
							c-0.1-0.2-0.1-0.4-0.2-0.6c-0.1-0.2-0.1-0.5-0.2-0.7c-0.1-0.2-0.1-0.4-0.2-0.7c0-0.1,0-0.2-0.1-0.3c-1.9-0.5-2-2.3-2.1-2.3
							c1.2,0.3,1.7,1.3,2,1.9c0-0.2-0.1-0.3-0.1-0.5c0-0.2-0.1-0.4-0.1-0.6c0-0.2-0.1-0.4-0.1-0.6c0-0.1,0-0.3,0-0.4
							c-1.8-0.8-1.6-2.6-1.6-2.6c0.9,0.4,1.4,1.2,1.6,1.7c0-0.2,0-0.5,0-0.7c0-0.3,0-0.5,0-0.8c0,0,0-0.1,0-0.1c0,0,0,0,0,0
							c0,0,0,0,0,0c0-0.1,0-0.1,0-0.2c0,0,0,0,0,0c0,0-0.6-1.9,0.9-2.4c0,0,0.8,1.9-0.9,2.4c0,0.1,0,0.2,0,0.3c0,0.2,0,0.5,0,0.8
							c0,0.3,0,0.6,0.1,0.9c0,0,0,0,0,0c0,0,0,0.1,0,0.1c0-0.6,0.1-1.5,1.1-1.7c0,0,0.7,1.9-1.1,2.3c0,0,0,0,0,0c0,0.1,0,0.3,0,0.4
							c0,0.2,0.1,0.4,0.1,0.6c0,0.2,0.1,0.4,0.1,0.6c0.1,0.4,0.2,0.8,0.3,1.2c0.1,0.2,0.1,0.4,0.2,0.6c0.1,0.2,0.1,0.4,0.2,0.7
							c0.1,0.2,0.1,0.4,0.2,0.6c0-0.6,0-1.6,1.1-1.9c0,0,0.7,1.8-1,2.2c0.1,0.1,0.1,0.3,0.2,0.4c0.1,0.2,0.2,0.5,0.3,0.7
							c0.1,0.2,0.2,0.5,0.3,0.7c0,0,0,0.1,0.1,0.1c0-0.5,0.1-1.6,1.3-1.9c0,0,0.5,1.8-1.2,2.1c0.3,0.5,0.6,1.1,0.9,1.6
							c0-0.6,0.2-1.4,1.3-1.6c0,0,0.5,1.7-1,2c0,0,0.1,0.1,0.1,0.1c0,0,0,0,0,0c0.1,0.1,0.1,0.2,0.2,0.4c0.2,0.4,0.5,0.8,0.8,1.2
							c0-0.6,0.1-1.5,1.2-1.7c0,0,0.6,1.7-0.9,2.1c0.1,0.2,0.3,0.4,0.4,0.5c0.1,0.1,0.2,0.2,0.3,0.3c0.1,0.1,0.2,0.2,0.3,0.3
							c0.1,0.1,0.3,0.3,0.4,0.4c0-0.6,0-1.5,1.1-1.8c0,0,0.7,1.6-0.7,2.2c0.2,0.2,0.3,0.3,0.5,0.5c0.2,0.2,0.4,0.4,0.7,0.6
							c0.1,0.1,0.2,0.2,0.3,0.3c-0.1-0.5-0.1-1.6,1.1-1.9c0,0,0.7,1.7-0.8,2.2c0,0,0.1,0.1,0.1,0.1c0.2,0.2,0.5,0.4,0.7,0.6
							c0.2,0.2,0.5,0.4,0.7,0.6c0,0,0.1,0,0.1,0.1c-0.1-0.6-0.1-1.5,0.9-1.9c0,0,0.9,1.5-0.4,2.3c0.1,0,0.1,0.1,0.2,0.1
							c0.2,0.2,0.5,0.3,0.7,0.5c0.3,0.2,0.5,0.3,0.8,0.5c0.1,0.1,0.2,0.1,0.4,0.2c-0.3-0.5-0.8-1.6,0-2.3c0,0,1.5,1.5,0.4,2.5
							c0,0,0,0,0,0c0.1,0.1,0.3,0.1,0.4,0.2c0.1,0.1,0.3,0.1,0.4,0.2C30.9,73.7,30.8,73.8,30.8,73.9z"/>
					</g>
					<g>
						<path class="st0" d="M62,57.7c0,0,0.5-1.9-1.1-2.3C60.9,55.4,60.3,57.3,62,57.7z"/>
						<path class="st0" d="M49.2,74.1c0.1-0.1,0.3-0.1,0.4-0.2c0.1-0.1,0.3-0.2,0.4-0.2c0,0,0,0,0,0c1,1.2,3,0.2,3,0.2
							c-0.7-0.8-1.9-0.7-2.6-0.5c0.1-0.1,0.2-0.1,0.3-0.2c0.3-0.2,0.5-0.3,0.8-0.5c0.3-0.2,0.5-0.3,0.7-0.5c0.1-0.1,0.2-0.2,0.3-0.2
							c1,1.1,2.9,0.2,2.9,0.2c-0.7-0.8-1.8-0.7-2.5-0.5c0,0,0,0,0,0c0.2-0.2,0.5-0.4,0.7-0.6c0.2-0.2,0.5-0.4,0.7-0.6
							c0.1,0,0.1-0.1,0.2-0.1c1.1,1.1,2.9,0.1,2.8,0.1c-0.7-0.8-1.9-0.6-2.5-0.4c0.1-0.1,0.1-0.1,0.2-0.2c0.2-0.2,0.4-0.4,0.7-0.6
							c0.2-0.2,0.3-0.3,0.5-0.5c1,1,2.7,0,2.7,0.1c-0.6-0.8-1.7-0.6-2.3-0.5c0.1-0.1,0.2-0.3,0.4-0.4c0.1-0.1,0.2-0.2,0.3-0.3
							c0.1-0.1,0.2-0.2,0.3-0.3c0.1-0.2,0.3-0.4,0.4-0.5c1.4,0.7,2.8-0.6,2.8-0.6c-0.9-0.6-2-0.1-2.6,0.2c0.3-0.4,0.6-0.8,0.8-1.2
							c0.1-0.1,0.2-0.3,0.2-0.4c1.6,0.3,2.6-1.1,2.6-1.1c-0.9-0.3-1.7,0.1-2.3,0.5c0.3-0.5,0.6-1,0.8-1.6c1.7,0.3,2.7-1.3,2.7-1.3
							c-1.1-0.3-2.1,0.5-2.5,1c0.1-0.2,0.2-0.5,0.3-0.7c0.1-0.2,0.2-0.5,0.3-0.7c0-0.1,0.1-0.2,0.1-0.2c1.9-0.3,2.2-2.1,2.2-2.1
							c-1.1,0.1-1.7,1-2,1.5c0.1-0.2,0.1-0.4,0.2-0.6c0.1-0.2,0.1-0.5,0.2-0.7c0.1-0.2,0.1-0.4,0.2-0.7c0-0.1,0-0.2,0.1-0.3
							c1.9-0.5,2-2.3,2.1-2.3c-1.2,0.3-1.7,1.3-2,1.9c0-0.2,0.1-0.3,0.1-0.5c0-0.2,0.1-0.4,0.1-0.6c0-0.2,0.1-0.4,0.1-0.6
							c0-0.1,0-0.3,0-0.4c1.8-0.8,1.6-2.6,1.6-2.6c-0.9,0.4-1.4,1.2-1.6,1.7c0-0.2,0-0.5,0-0.7c0-0.3,0-0.5,0-0.8c0,0,0-0.1,0-0.1
							c0,0,0,0,0,0c0,0,0,0,0,0c0-0.1,0-0.1,0-0.2c0,0,0,0,0,0c0,0,0.6-1.9-0.9-2.4c0,0-0.8,1.9,0.9,2.4c0,0.1,0,0.2,0,0.3
							c0,0.2,0,0.5,0,0.8c0,0.3,0,0.6-0.1,0.9c0,0,0,0,0,0c0,0,0,0.1,0,0.1c0-0.6-0.1-1.5-1.1-1.7c0,0-0.7,1.9,1.1,2.3c0,0,0,0,0,0
							c0,0.1,0,0.3,0,0.4c0,0.2-0.1,0.4-0.1,0.6c0,0.2-0.1,0.4-0.1,0.6c-0.1,0.4-0.2,0.8-0.3,1.2c-0.1,0.2-0.1,0.4-0.2,0.6
							c-0.1,0.2-0.1,0.4-0.2,0.7c-0.1,0.2-0.1,0.4-0.2,0.6c0-0.6,0-1.6-1.1-1.9c0,0-0.7,1.8,1,2.2c-0.1,0.1-0.1,0.3-0.2,0.4
							c-0.1,0.2-0.2,0.5-0.3,0.7c-0.1,0.2-0.2,0.5-0.3,0.7c0,0,0,0.1-0.1,0.1c0-0.5-0.1-1.6-1.3-1.9c0,0-0.5,1.8,1.2,2.1
							c-0.3,0.5-0.6,1.1-0.9,1.6c0-0.6-0.2-1.4-1.3-1.6c0,0-0.5,1.7,1,2c0,0-0.1,0.1-0.1,0.1c0,0,0,0,0,0c-0.1,0.1-0.1,0.2-0.2,0.4
							c-0.2,0.4-0.5,0.8-0.8,1.2c0-0.6-0.1-1.5-1.2-1.7c0,0-0.6,1.7,0.9,2.1c-0.1,0.2-0.3,0.4-0.4,0.5c-0.1,0.1-0.2,0.2-0.3,0.3
							c-0.1,0.1-0.2,0.2-0.3,0.3c-0.1,0.1-0.3,0.3-0.4,0.4c0-0.6,0-1.5-1.1-1.8c0,0-0.7,1.6,0.7,2.2c-0.2,0.2-0.3,0.3-0.5,0.5
							c-0.2,0.2-0.4,0.4-0.7,0.6c-0.1,0.1-0.2,0.2-0.3,0.3c0.1-0.5,0.1-1.6-1.1-1.9c0,0-0.7,1.7,0.8,2.2c0,0-0.1,0.1-0.1,0.1
							c-0.2,0.2-0.5,0.4-0.7,0.6c-0.2,0.2-0.5,0.4-0.7,0.6c0,0-0.1,0-0.1,0.1c0.1-0.6,0.1-1.5-0.9-1.9c0,0-0.9,1.5,0.4,2.3
							c-0.1,0-0.1,0.1-0.2,0.1c-0.2,0.2-0.5,0.3-0.7,0.5c-0.3,0.2-0.5,0.3-0.8,0.5c-0.1,0.1-0.2,0.1-0.4,0.2c0.3-0.5,0.8-1.6,0-2.3
							c0,0-1.5,1.5-0.4,2.5c0,0,0,0,0,0c-0.1,0.1-0.3,0.1-0.4,0.2c-0.1,0.1-0.3,0.1-0.4,0.2C49,73.8,49.1,74,49.2,74.1z"/>
					</g>
				</g>
			</g>
			<g>
				<path d="M68.3,52.7c0-1.5,0-2.9,0-4.4c0-3.5,0-7,0-10.4c0-4.2,0-8.4,0-12.6c0-3.7,0-7.3,0-11c0-1.8,0.1-3.6,0-5.3
					c0,0,0-0.1,0-0.1c0-0.4-0.3-0.7-0.7-0.7c-1.8,0-3.7,0-5.5,0c-4.4,0-8.8,0-13.2,0c-5.3,0-10.7,0-16,0c-4.6,0-9.2,0-13.8,0
					c-2.2,0-4.5-0.1-6.7,0c0,0-0.1,0-0.1,0c-0.4,0-0.7,0.3-0.7,0.7c0,1.3,0,2.5,0,3.8c0,3.1,0,6.2,0,9.3c0,3.9,0,7.8,0,11.7
					c0,3.6,0,7.3,0,10.9c0,2.3,0,4.7,0,7c0,0.4,0,0.7,0,1.1c0,3.1,0.5,6.3,1.6,9.2C15.5,68,19.7,73,25,76.8c2.7,2,5.7,3.6,8.8,5.1
					c1.5,0.7,3.1,1.5,4.6,2.2c0.5,0.2,1,0.5,1.6,0.5c0.1,0,0.3,0,0.4,0c0.4,0,0.7-0.3,1-0.4c6.2-2.8,12.3-5.8,17.3-10.5
					c4.6-4.3,8-10,9.1-16.2C68.2,55.9,68.3,54.3,68.3,52.7c0-0.9-1.3-0.9-1.3,0c0.1,6.3-2.5,12.5-6.5,17.3
					c-4.2,5.1-10,8.4-15.9,11.3c-0.8,0.4-1.5,0.7-2.3,1.1c-0.3,0.2-0.7,0.3-1,0.5c-0.2,0.1-0.4,0.2-0.6,0.3c-0.1,0-0.6,0.2-0.3,0.2
					c-0.1,0-0.3,0-0.4,0c-0.1,0-0.1,0-0.2,0c-0.2,0-0.2-0.1-0.1,0c-0.8-0.3-1.5-0.7-2.3-1.1c-3-1.4-6-2.8-8.8-4.6
					c-5.5-3.4-10.2-7.9-13-13.7c-1.4-2.8-2.3-5.9-2.5-9C12.9,54,13,53,13,52.1c0-2,0-4,0-6.1c0-3.4,0-6.9,0-10.3c0-3.8,0-7.7,0-11.5
					c0-3.3,0-6.6,0-9.9c0-1.7,0-3.1,0-4.8l0,0l0,0c1.8,0,3,0,4.9,0c4.4,0,8.8,0,13.2,0c5.3,0,10.7,0,16,0c4.6,0,9.2,0,13.8,0
					c1.5,0,6.1,0,6.1,0l0,0c0,0,0,0,0,0c-0.2-0.2,0.2,0.2,0,0c0,1.5,0,2.2,0,3.7c0,3.5,0,7,0,10.4c0,4.2,0,8.4,0,12.6
					c0,3.7,0,7.3,0,11c0,1.8-0.1,3.6,0,5.3c0,0,0,0.1,0,0.1C67,53.6,68.3,53.6,68.3,52.7z"/>
			</g>
			<g>
				<path d="M75.6,5.4C75.4,5.2,75.8,5.6,75.6,5.4c0,0,0,0,0,4.2c0,3.9-0.1,7.8-0.1,11.7c0,4.7-0.1,9.4-0.1,14c0,4-0.1,8.1-0.1,12.1
					c0,2-0.1,4,0,5.9c0,0.2-0.1,0.5,1.3,0.5l0-5.2c0-3.9,0.1-7.8,0.1-11.7c0-4.7,0.1-9.4,0.1-14c0-4,0.1-8.1,0.1-12.1
					c0-2,0.1-4,0-5.9c0,0,0-0.1,0-0.1c0-0.4-0.3-0.7-0.7-0.7c-2.4,0-4.8,0-7.2,0c-5.8,0-11.5,0-17.3,0c-7,0-13.9,0-20.9,0
					c-6,0-12,0-18,0C10,4.1,7,4,4.1,4.1c0,0-0.1,0-0.1,0c-0.4,0-0.7,0.3-0.7,0.7c0,1.6,0,3.2,0,4.8c0,3.9-0.1,7.7-0.1,11.6
					c0,4.7-0.1,9.3-0.1,14c0,4.1-0.1,8.1-0.1,12.2c0,2,0,4,0,6C2.9,60,4.9,66.5,8.4,72.2c4.2,6.8,10.3,11.9,17.1,15.8
					c3.5,2.1,7.2,3.8,11,5.5c0.8,0.4,1.7,0.8,2.5,1.2c0.4,0.1,1.1,0.1,1.5,0c0.8-0.4,1.6-0.7,2.4-1.1c0.9-0.4,1.8-0.8,2.8-1.3
					C53,88.9,60.2,84.9,65.9,79c5.2-5.4,9.1-12.4,10.3-19.9c0.3-1.9,0.4-3.7,0.4-5.6c0-0.9-1.3-0.9-1.3,0c0.1,7.6-2.7,15-7.3,21
					c-4.7,6.3-11.3,10.8-18.3,14.4c-1.8,0.9-3.6,1.8-5.4,2.6c-0.9,0.4-1.8,0.8-2.8,1.3c-0.4,0.2-1,0.3-1.3,0.6c-0.2,0.1,0.1,0,0,0
					c0,0-0.1,0-0.1,0c-0.1,0-0.2,0-0.3,0c-0.2,0-0.4,0-0.5,0c-0.2,0,0.1,0,0.1,0c-0.1,0-0.2-0.1-0.3-0.2c-0.3-0.1-0.5-0.2-0.8-0.4
					c-0.9-0.4-1.8-0.8-2.7-1.2c-1.8-0.9-3.7-1.7-5.5-2.7c-6.9-3.6-13.6-8-18.4-14.3c-4.5-6-7.5-13.3-7.4-20.9c0-1.6,0-3.3,0-4.9
					c0-3.7,0.1-7.5,0.1-11.2c0-4.6,0.1-9.2,0.1-13.8c0-4.1,0.1-8.2,0.1-12.2c0-2.2,0-4.1,0-6.3c0,0,0,0.1,0,0l0,0c2.4,0,4.1,0,6.5,0
					c5.8,0,11.5,0,17.3,0c7,0,13.9,0,20.9,0c6,0,12,0,18,0C69.4,5.4,75.6,5.4,75.6,5.4"/>
			</g>
			<g>
				<g>
					<g>
						<polygon class="st0" points="40,27.2 40.6,29.2 42.7,29.2 41,30.4 41.7,32.4 40,31.2 38.3,32.4 38.9,30.4 37.2,29.2 
							39.3,29.2 						"/>
						<g>
							<g>
								<polygon class="st0" points="34.9,29.1 35.2,30.2 36.4,30.2 35.4,30.9 35.8,32 34.9,31.3 33.9,32 34.3,30.9 33.3,30.2 
									34.5,30.2 								"/>
							</g>
							<g>
								<polygon class="st0" points="45.1,29.1 44.7,30.2 43.6,30.2 44.5,30.9 44.1,32 45.1,31.3 46,32 45.6,30.9 46.6,30.2 
									45.4,30.2 								"/>
							</g>
							<g>
								<polygon class="st0" points="31.1,30.6 31.4,31.4 32.3,31.4 31.6,32 31.8,32.8 31.1,32.3 30.4,32.8 30.7,32 30,31.4 
									30.9,31.4 								"/>
								<polygon class="st0" points="48.8,30.6 48.5,31.4 47.7,31.4 48.4,32 48.1,32.8 48.8,32.3 49.5,32.8 49.2,32 49.9,31.4 
									49.1,31.4 								"/>
							</g>
						</g>
					</g>
				</g>
			</g>
			<g>
				<g>
					<path class="st0" d="M36.6,74.7c0,0.2-0.1,0.4-0.3,0.5c-0.2,0.1-0.4,0.1-0.7,0.1c-0.2,0-0.4-0.1-0.6-0.1c-0.1,0-0.1,0-0.2,0
						c0,0-0.1,0-0.1,0.1c-0.1,0.1-0.1,0.1-0.1,0.2c0,0.1,0,0.1,0,0.2c0.6,0.1,1.3,0.2,1.9,0.2c0,0.1,0,0.3,0,0.4
						c-0.9-0.1-1.7-0.2-2.6-0.4c0-0.2,0.1-0.4,0.1-0.6c0-0.1,0.1-0.3,0.1-0.3c0.1-0.1,0.1-0.2,0.2-0.2c0.1-0.1,0.2-0.1,0.3-0.1
						c0.1,0,0.2,0,0.4,0c0.2,0,0.4,0.1,0.6,0.1c0.1,0,0.2,0,0.3,0c0.1,0,0.1-0.1,0.1-0.2c0-0.1,0-0.2-0.1-0.2
						c-0.1-0.1-0.2-0.1-0.3-0.1c-0.5-0.1-0.9-0.1-1.4-0.2c0-0.1,0-0.3,0.1-0.4c0.6,0.1,1.2,0.2,1.7,0.3c0.3,0,0.4,0.1,0.6,0.3
						C36.6,74.4,36.6,74.5,36.6,74.7z"/>
					<path class="st0" d="M39.8,75.3c0,0.5-0.1,0.8-0.4,1c-0.2,0.2-0.5,0.2-1,0.2c-0.5,0-0.8-0.1-1-0.3c-0.2-0.2-0.3-0.5-0.3-1
						c0-0.4,0.1-0.6,0.4-0.8c0.2-0.2,0.6-0.3,1-0.3c0.5,0,0.8,0.1,1,0.3C39.7,74.6,39.8,74.9,39.8,75.3z M39.2,75.3
						c0-0.2,0-0.4-0.2-0.5c-0.1-0.2-0.3-0.2-0.5-0.2c-0.2,0-0.4,0.1-0.5,0.2c-0.1,0.1-0.2,0.3-0.2,0.5c0,0.2,0,0.4,0.1,0.6
						c0.1,0.2,0.3,0.3,0.6,0.3c0.3,0,0.5-0.1,0.6-0.2C39.1,75.7,39.2,75.6,39.2,75.3z"/>
					<path class="st0" d="M43,75.2c0,0.4-0.1,0.8-0.3,1c-0.2,0.2-0.5,0.3-0.9,0.3c-0.5,0-0.8-0.1-1-0.2c-0.2-0.2-0.4-0.5-0.4-1
						c0-0.4,0.1-0.6,0.3-0.8c0.2-0.2,0.5-0.3,1-0.4c0.5,0,0.8,0.1,1,0.2C42.8,74.5,42.9,74.8,43,75.2z M42.4,75.2
						c0-0.2-0.1-0.4-0.2-0.5c-0.1-0.1-0.3-0.2-0.6-0.2c-0.2,0-0.4,0.1-0.5,0.3c-0.1,0.1-0.1,0.3-0.1,0.5c0,0.2,0.1,0.4,0.1,0.5
						c0.1,0.2,0.3,0.2,0.7,0.2c0.3,0,0.4-0.1,0.5-0.3C42.3,75.7,42.4,75.5,42.4,75.2z"/>
					<path class="st0" d="M45.7,75.5c0,0.2-0.1,0.3-0.2,0.4c-0.1,0.1-0.3,0.2-0.5,0.2c-0.5,0.1-0.9,0.1-1.4,0.2c0-0.1,0-0.3,0-0.4
						c0.4,0,0.8-0.1,1.2-0.2c0.1,0,0.1,0,0.2-0.1c0.1-0.1,0.1-0.1,0.1-0.2c0-0.1-0.1-0.1-0.1-0.2c-0.1,0-0.1-0.1-0.2-0.1
						c-0.3,0-0.6,0.1-0.9,0.1c0-0.1,0-0.3-0.1-0.4c0.3,0,0.6-0.1,0.9-0.1c0.1,0,0.2-0.1,0.2-0.1c0.1-0.1,0.1-0.1,0.1-0.2
						c0-0.2-0.2-0.2-0.4-0.2c-0.4,0.1-0.7,0.1-1.1,0.1c0-0.1,0-0.3,0-0.4c0.4,0,0.9-0.1,1.3-0.2c0.2,0,0.4,0,0.5,0.1
						c0.1,0.1,0.2,0.2,0.2,0.4c0,0.1,0,0.2,0,0.3c0,0.1-0.1,0.2-0.2,0.2c0.1,0,0.2,0.1,0.3,0.2c0.1,0.1,0.1,0.2,0.1,0.3
						C45.7,75.4,45.7,75.4,45.7,75.5z"/>
				</g>
			</g>
		</g>
		<g>
			<path d="M10.3,8.1l0,0.9l-2.1,0c-0.3,0-0.6,0-0.7,0C7.3,9,7.2,9.1,7.1,9.2C7,9.3,7,9.5,6.9,9.8c0,0.2,0,0.4,0.1,0.5
				c0.1,0.1,0.2,0.2,0.3,0.2c0.1,0,0.4,0,0.7,0l2.2,0l0,0.9l-2.1,0c-0.5,0-0.8,0-1-0.1c-0.2,0-0.4-0.1-0.5-0.3
				c-0.1-0.1-0.2-0.3-0.3-0.5c-0.1-0.2-0.1-0.5-0.1-0.8c0-0.4,0-0.7,0.1-0.9c0.1-0.2,0.2-0.4,0.3-0.5C6.9,8.2,7,8.2,7.2,8.1
				C7.4,8.1,7.7,8,8.2,8L10.3,8.1z"/>
			<path d="M6.3,12.6l4,0l0,0.8l-2.7,1.7l2.6,0l0,0.8l-4,0l0-0.9l2.6-1.7l-2.6,0L6.3,12.6z"/>
			<path d="M6.3,17.1l4,0l0,0.9l-4,0L6.3,17.1z"/>
			<path d="M6.3,20.1l4-1.5l0,0.9l-2.9,1.1l2.9,1.1l0,0.9L6.3,21L6.3,20.1z"/>
			<path d="M6.2,23.2l4,0l0,3.1l-0.7,0l0-2.3l-0.9,0l0,2.1l-0.7,0l0-2.1l-1.1,0l0,2.4l-0.7,0L6.2,23.2z"/>
			<path d="M6.2,27.4l4,0l0,1.8c0,0.5,0,0.8-0.1,1c-0.1,0.2-0.2,0.4-0.4,0.5c-0.2,0.1-0.4,0.2-0.6,0.2c-0.3,0-0.5-0.1-0.7-0.3
				c-0.2-0.2-0.3-0.5-0.4-0.8c-0.1,0.2-0.2,0.3-0.3,0.5c-0.1,0.1-0.3,0.3-0.6,0.5l-0.8,0.5l0-1l0.9-0.6c0.3-0.2,0.5-0.4,0.6-0.4
				C7.7,29,7.8,29,7.8,28.9c0-0.1,0-0.2,0-0.4l0-0.2l-1.7,0L6.2,27.4z M8.5,28.3l0,0.6c0,0.4,0,0.7,0,0.8c0,0.1,0.1,0.2,0.2,0.2
				C8.8,30,8.9,30,9,30c0.1,0,0.2,0,0.3-0.1c0.1-0.1,0.1-0.2,0.2-0.3c0-0.1,0-0.3,0-0.6l0-0.7L8.5,28.3z"/>
			<path d="M7.5,31.7l0.1,0.8c-0.3,0-0.5,0.1-0.6,0.3c-0.1,0.2-0.2,0.4-0.2,0.6c0,0.3,0.1,0.5,0.2,0.6c0.1,0.1,0.2,0.2,0.4,0.2
				c0.1,0,0.2,0,0.2-0.1c0.1-0.1,0.1-0.2,0.2-0.3c0-0.1,0.1-0.3,0.2-0.7c0.1-0.5,0.2-0.8,0.4-1c0.2-0.3,0.5-0.4,0.8-0.4
				c0.2,0,0.4,0.1,0.6,0.2c0.2,0.1,0.3,0.3,0.4,0.5c0.1,0.2,0.1,0.5,0.1,0.8c0,0.5-0.1,0.9-0.3,1.2C9.7,34.9,9.4,35,9,35.1l0-0.9
				c0.2,0,0.4-0.1,0.4-0.2c0.1-0.1,0.1-0.3,0.1-0.5c0-0.2,0-0.4-0.1-0.6c-0.1-0.1-0.1-0.1-0.2-0.1c-0.1,0-0.2,0-0.2,0.1
				c-0.1,0.1-0.2,0.4-0.3,0.8c-0.1,0.4-0.2,0.7-0.3,0.9C8.3,34.7,8.1,34.9,8,35c-0.2,0.1-0.4,0.2-0.6,0.2c-0.2,0-0.4-0.1-0.6-0.2
				c-0.2-0.1-0.3-0.3-0.4-0.6c-0.1-0.2-0.1-0.6-0.1-0.9c0-0.5,0.1-0.9,0.4-1.2C6.7,31.9,7,31.8,7.5,31.7z"/>
			<path d="M6.2,36.1l4,0l0,0.9l-4,0L6.2,36.1z"/>
			<path d="M6.1,39l3.3,0l0-1.3l0.7,0l0,3.4l-0.7,0l0-1.3l-3.3,0L6.1,39z"/>
			<path d="M6.1,43l1.7,0l2.3-1.5l0,1l-1.6,1l1.6,1l0,1l-2.3-1.6l-1.7,0L6.1,43z"/>
			<path d="M8,47.8c0.4,0,0.7,0.1,1,0.2c0.2,0.1,0.4,0.2,0.5,0.4c0.2,0.2,0.3,0.4,0.4,0.5c0.1,0.3,0.2,0.6,0.2,0.9
				c0,0.6-0.2,1.1-0.6,1.5c-0.4,0.4-0.9,0.6-1.5,0.6c-0.6,0-1.1-0.2-1.5-0.6C6.2,51,6,50.5,6,49.9c0-0.6,0.2-1.1,0.5-1.5
				C6.9,48,7.4,47.8,8,47.8z M8.1,48.7c-0.4,0-0.8,0.1-1,0.3c-0.2,0.2-0.3,0.5-0.4,0.8c0,0.3,0.1,0.6,0.3,0.8c0.2,0.2,0.6,0.3,1,0.3
				c0.5,0,0.8-0.1,1-0.3c0.2-0.2,0.3-0.5,0.3-0.8c0-0.4-0.1-0.6-0.3-0.9C8.9,48.8,8.5,48.7,8.1,48.7z"/>
			<path d="M6,53l4-0.2l0.2,2.9l-0.7,0l-0.1-2l-0.9,0l0.1,1.8l-0.7,0l-0.1-1.8l-1.7,0.1L6,53z"/>
			<path d="M6.7,59l3.9-0.9l0.2,0.8l-3.9,0.9L6.7,59z"/>
			<path d="M7.2,61.1l3.8-1.2l0.3,0.8l-2,2.5l2.5-0.8L12,63l-3.8,1.2l-0.3-0.8L9.9,61l-2.5,0.8L7.2,61.1z"/>
			<path d="M8.8,65.6l3.6-1.7l1.2,2.6L13,66.8l-0.9-1.8l-0.8,0.4l0.8,1.6l-0.6,0.3l-0.8-1.6l-1.5,0.7L8.8,65.6z"/>
			<path d="M12.1,68.1c0.3-0.2,0.7-0.3,1-0.4c0.2,0,0.4,0,0.7,0c0.2,0.1,0.4,0.1,0.6,0.3c0.2,0.2,0.4,0.4,0.6,0.7
				c0.3,0.5,0.5,1,0.3,1.6s-0.4,0.9-1,1.3c-0.5,0.3-1.1,0.5-1.6,0.3c-0.5-0.1-0.9-0.4-1.3-1c-0.3-0.5-0.5-1.1-0.4-1.6
				C11.3,68.8,11.6,68.4,12.1,68.1z M12.6,68.8c-0.4,0.2-0.6,0.5-0.7,0.8c-0.1,0.3,0,0.6,0.2,0.9c0.2,0.3,0.4,0.5,0.7,0.5
				c0.3,0.1,0.7,0,1-0.3c0.4-0.2,0.6-0.5,0.7-0.8c0.1-0.3,0-0.6-0.2-0.9c-0.2-0.3-0.4-0.5-0.7-0.5C13.4,68.5,13,68.5,12.6,68.8z"/>
			<path d="M13.4,73.5l3-2.5l1.2,1.4c0.3,0.3,0.5,0.6,0.6,0.8c0.1,0.2,0.1,0.4,0,0.6c-0.1,0.2-0.2,0.4-0.4,0.5
				c-0.2,0.2-0.5,0.3-0.7,0.3c-0.3,0-0.5-0.2-0.8-0.4c0,0.2,0.1,0.4,0,0.6c0,0.2-0.1,0.4-0.2,0.8l-0.3,0.9l-0.7-0.8l0.3-1
				c0.1-0.4,0.1-0.6,0.2-0.7c0-0.1,0-0.2,0-0.3c0-0.1-0.1-0.2-0.2-0.4l-0.1-0.1L14,74.2L13.4,73.5z M15.7,72.7l0.4,0.5
				c0.3,0.3,0.4,0.5,0.5,0.6c0.1,0.1,0.2,0.1,0.3,0.1c0.1,0,0.2,0,0.3-0.1c0.1-0.1,0.2-0.2,0.2-0.3s0-0.2-0.1-0.3
				c0-0.1-0.2-0.2-0.4-0.5l-0.4-0.5L15.7,72.7z"/>
			<path d="M16.5,77.1l2.7-2.9l0.9,0.9l-1.3,2.5l2.4-1.5l0.9,0.9l-2.7,2.9L19,79.4l2.1-2.3l-2.7,1.7l-0.6-0.6l1.5-2.9l-2.1,2.3
				L16.5,77.1z"/>
			<path d="M23.6,83l-0.7-0.6l0.2-0.9l-1.4-1L21,81l-0.7-0.5l3.7-2.2l0.7,0.5L23.6,83z M23.3,80.8l0.4-1.5l-1.3,0.8L23.3,80.8z"/>
			<path d="M25.2,84l1.8-2.8l-1.1-0.7l0.4-0.6l2.8,1.8l-0.4,0.6l-1.1-0.7l-1.8,2.8L25.2,84z"/>
			<path d="M27.7,85.5l2-3.4l0.7,0.4l-2,3.4L27.7,85.5z"/>
			<path d="M30.2,84.7c0.2-0.4,0.4-0.6,0.6-0.8c0.2-0.1,0.4-0.2,0.6-0.3c0.2-0.1,0.4-0.1,0.7-0.1c0.3,0,0.6,0.1,0.9,0.3
				c0.6,0.3,0.9,0.7,1.1,1.2c0.2,0.5,0.1,1-0.2,1.6c-0.3,0.6-0.7,0.9-1.2,1.1c-0.5,0.1-1,0.1-1.6-0.2c-0.6-0.3-0.9-0.7-1.1-1.2
				C29.9,85.8,29.9,85.2,30.2,84.7z M31,85.1c-0.2,0.4-0.3,0.8-0.2,1.1c0.1,0.3,0.3,0.5,0.6,0.7c0.3,0.2,0.6,0.2,0.9,0.1
				c0.3-0.1,0.6-0.4,0.8-0.8c0.2-0.4,0.3-0.8,0.2-1c-0.1-0.3-0.3-0.5-0.6-0.7c-0.3-0.2-0.6-0.2-0.9-0.1C31.5,84.4,31.2,84.7,31,85.1
				z"/>
			<path d="M33.9,88.8l1.7-3.6l0.8,0.4l0.4,3.1l1.1-2.4l0.7,0.3l-1.7,3.6l-0.8-0.4l-0.4-3.1l-1.1,2.3L33.9,88.8z"/>
			<path d="M43.8,89.8l-1.4-3l-1.1,0.5L41,86.8l3-1.4l0.3,0.6l-1.1,0.5l1.4,3L43.8,89.8z"/>
			<path d="M46.4,88.6L44.6,85l2.8-1.4l0.3,0.6l-2,1l0.4,0.8l1.9-1l0.3,0.6l-1.9,1l0.5,1l2.1-1.1l0.3,0.6L46.4,88.6z"/>
			<path d="M51.8,84l0.8-0.2c0.1,0.4,0.1,0.8-0.1,1.2c-0.2,0.3-0.4,0.6-0.8,0.8c-0.5,0.3-1,0.3-1.5,0.2c-0.5-0.1-0.9-0.5-1.2-1
				c-0.3-0.6-0.4-1.1-0.3-1.6c0.1-0.5,0.5-0.9,1-1.2c0.5-0.3,0.9-0.3,1.3-0.2c0.3,0.1,0.5,0.2,0.7,0.4L51.1,83
				c-0.1-0.2-0.3-0.2-0.5-0.3s-0.4,0-0.6,0.1c-0.3,0.2-0.4,0.4-0.5,0.7c-0.1,0.3,0,0.6,0.3,1c0.2,0.4,0.5,0.7,0.8,0.8
				s0.5,0.1,0.8-0.1c0.2-0.1,0.3-0.3,0.4-0.5C51.9,84.6,51.8,84.3,51.8,84z"/>
			<path d="M54.1,84.4l-2.2-3.3l0.7-0.5l0.9,1.3l1.4-0.9L54,79.7l0.7-0.5l2.2,3.3L56.2,83l-1-1.4l-1.4,0.9l1,1.4L54.1,84.4z"/>
			<path d="M57.9,81.8l-2.5-3.1l0.7-0.5l3,1l-1.6-2.1l0.6-0.5l2.5,3.1l-0.7,0.5l-2.9-1l1.6,2L57.9,81.8z"/>
			<path d="M60,77.6c-0.3-0.3-0.5-0.6-0.6-0.9c-0.1-0.2-0.1-0.4-0.1-0.7c0-0.2,0.1-0.4,0.1-0.6c0.1-0.3,0.3-0.5,0.5-0.8
				c0.4-0.4,0.9-0.7,1.4-0.7c0.5,0,1,0.2,1.5,0.7c0.4,0.5,0.7,0.9,0.7,1.5c0,0.5-0.2,1-0.7,1.4c-0.4,0.4-0.9,0.7-1.4,0.7
				C60.9,78.3,60.4,78.1,60,77.6z M60.6,77c0.3,0.3,0.6,0.5,1,0.5c0.3,0,0.6-0.1,0.8-0.3c0.2-0.2,0.4-0.5,0.4-0.8
				c0-0.3-0.2-0.6-0.5-1c-0.3-0.3-0.6-0.5-0.9-0.5c-0.3,0-0.6,0.1-0.8,0.4c-0.3,0.2-0.4,0.5-0.4,0.8C60.1,76.4,60.3,76.7,60.6,77z"
				/>
			<path d="M65,75.3l-3.1-2.5l0.5-0.7l2.5,2l1.3-1.7l0.5,0.4L65,75.3z"/>
			<path d="M65.7,71.3c-0.3-0.2-0.6-0.4-0.8-0.7c-0.1-0.2-0.2-0.4-0.3-0.6c0-0.2-0.1-0.4,0-0.7c0.1-0.3,0.2-0.6,0.4-0.9
				c0.3-0.5,0.7-0.9,1.3-1c0.5-0.1,1,0,1.6,0.3c0.5,0.3,0.9,0.8,1,1.3c0.1,0.5,0,1-0.3,1.6c-0.3,0.5-0.8,0.9-1.3,1
				C66.7,71.8,66.2,71.7,65.7,71.3z M66.1,70.6c0.4,0.2,0.7,0.3,1,0.3c0.3-0.1,0.6-0.2,0.7-0.5s0.2-0.6,0.2-0.9
				c-0.1-0.3-0.3-0.6-0.7-0.8c-0.4-0.2-0.7-0.3-1-0.3c-0.3,0.1-0.5,0.2-0.7,0.5s-0.2,0.6-0.2,0.9C65.5,70,65.7,70.3,66.1,70.6z"/>
			<path d="M69.5,65.5l-0.6-0.3l0.8-1.7l1.4,0.7c0.1,0.2,0.1,0.5,0.1,0.9c0,0.4-0.1,0.7-0.3,1c-0.2,0.4-0.4,0.7-0.7,0.9
				c-0.3,0.2-0.6,0.4-1,0.4c-0.4,0-0.7-0.1-1.1-0.2c-0.4-0.2-0.7-0.4-0.9-0.7c-0.2-0.3-0.3-0.6-0.3-1c0-0.3,0.1-0.6,0.2-1
				c0.2-0.5,0.5-0.8,0.8-1c0.3-0.2,0.6-0.2,1-0.2l-0.2,0.8c-0.2,0-0.4,0-0.6,0.1c-0.2,0.1-0.3,0.3-0.4,0.5c-0.2,0.3-0.2,0.7-0.1,0.9
				c0.1,0.3,0.4,0.5,0.8,0.7c0.4,0.2,0.8,0.2,1.1,0.1c0.3-0.1,0.5-0.3,0.7-0.7c0.1-0.2,0.1-0.3,0.1-0.5c0-0.2,0-0.4,0-0.5l-0.5-0.2
				L69.5,65.5z"/>
			<path d="M72.3,62.2l-1.6-0.5l-2.6,0.8l0.3-1l1.8-0.5l-1.2-1.4l0.3-0.9L71,61l1.6,0.5L72.3,62.2z"/>
			<path d="M73.9,51.5l0,0.9l-0.9,0.3l-0.1,1.7l0.9,0.4l0,0.9L69.8,54l0-0.9L73.9,51.5z M72.2,53l-1.5,0.5l1.5,0.6L72.2,53z"/>
			<path d="M73.8,50.9l-4-0.1l0-0.8l2.7-1.7l-2.6,0l0-0.8l4,0.1l0,0.9l-2.6,1.7l2.6,0L73.8,50.9z"/>
			<path d="M69.9,46.4l0-1.6c0-0.4,0-0.6,0.1-0.8c0.1-0.2,0.2-0.5,0.4-0.6c0.2-0.2,0.4-0.3,0.6-0.4c0.3-0.1,0.6-0.1,0.9-0.1
				c0.3,0,0.6,0,0.8,0.1c0.3,0.1,0.5,0.3,0.7,0.5c0.1,0.1,0.2,0.4,0.3,0.6c0.1,0.2,0.1,0.4,0.1,0.8l0,1.6L69.9,46.4z M70.6,45.6
				l2.6,0l0-0.6c0-0.2,0-0.4,0-0.5c0-0.1-0.1-0.3-0.2-0.3c-0.1-0.1-0.2-0.2-0.4-0.2c-0.2-0.1-0.4-0.1-0.7-0.1s-0.5,0-0.7,0.1
				c-0.2,0.1-0.3,0.1-0.4,0.2c-0.1,0.1-0.2,0.2-0.2,0.4c0,0.1,0,0.4,0,0.7L70.6,45.6z"/>
			<path d="M72.6,38.7l-0.1-0.8c0.3,0,0.5-0.1,0.6-0.3c0.1-0.2,0.2-0.4,0.2-0.6c0-0.3-0.1-0.5-0.2-0.6c-0.1-0.1-0.2-0.2-0.4-0.2
				c-0.1,0-0.2,0-0.2,0.1c-0.1,0.1-0.1,0.2-0.2,0.3c0,0.1-0.1,0.3-0.2,0.7c-0.1,0.5-0.2,0.8-0.4,1c-0.2,0.3-0.5,0.4-0.8,0.4
				c-0.2,0-0.4-0.1-0.6-0.2c-0.2-0.1-0.3-0.3-0.4-0.5c-0.1-0.2-0.1-0.5-0.1-0.8c0-0.5,0.1-0.9,0.3-1.2s0.5-0.4,0.9-0.4l0,0.9
				c-0.2,0-0.4,0.1-0.4,0.2c-0.1,0.1-0.1,0.3-0.1,0.5c0,0.2,0,0.4,0.1,0.6c0.1,0.1,0.1,0.1,0.2,0.1c0.1,0,0.2,0,0.2-0.1
				c0.1-0.1,0.2-0.4,0.3-0.8c0.1-0.4,0.2-0.7,0.3-0.9c0.1-0.2,0.2-0.4,0.4-0.5c0.2-0.1,0.4-0.2,0.6-0.2c0.2,0,0.4,0.1,0.6,0.2
				c0.2,0.1,0.3,0.3,0.4,0.6c0.1,0.2,0.1,0.6,0.1,0.9c0,0.5-0.1,0.9-0.4,1.2C73.4,38.5,73.1,38.6,72.6,38.7z"/>
			<path d="M72.5,31.7l0.3-0.8c0.4,0.1,0.8,0.3,1,0.6c0.2,0.3,0.3,0.7,0.3,1.1c0,0.6-0.2,1-0.5,1.4c-0.4,0.4-0.9,0.5-1.5,0.5
				c-0.7,0-1.2-0.2-1.5-0.6c-0.4-0.4-0.5-0.8-0.5-1.4c0-0.5,0.1-0.9,0.4-1.3c0.2-0.2,0.4-0.3,0.7-0.4l0.2,0.8
				c-0.2,0-0.4,0.2-0.5,0.3c-0.1,0.2-0.2,0.4-0.2,0.6c0,0.3,0.1,0.6,0.3,0.8c0.2,0.2,0.5,0.3,1,0.3c0.5,0,0.9-0.1,1.1-0.3
				c0.2-0.2,0.3-0.4,0.3-0.7c0-0.2-0.1-0.4-0.2-0.6C73,31.9,72.8,31.7,72.5,31.7z"/>
			<path d="M74,30l-4,0l0-0.9l4,0L74,30z"/>
			<path d="M74,28.2l-4,0l0-3.1l0.7,0l0,2.3l0.9,0l0-2.1l0.7,0l0,2.1l1.1,0l0-2.4l0.7,0L74,28.2z"/>
			<path d="M74,24.1l-4,0l0-0.8l2.7-1.7l-2.6,0l0-0.8l4,0l0,0.9l-2.6,1.7l2.6,0L74,24.1z"/>
			<path d="M72.6,17l0.3-0.8c0.4,0.1,0.8,0.3,1,0.6s0.3,0.7,0.3,1.1c0,0.6-0.2,1-0.5,1.4c-0.4,0.4-0.9,0.5-1.5,0.5
				c-0.7,0-1.2-0.2-1.5-0.6c-0.4-0.4-0.5-0.8-0.5-1.4c0-0.5,0.1-0.9,0.4-1.3c0.2-0.2,0.4-0.3,0.7-0.4l0.2,0.8
				c-0.2,0-0.4,0.2-0.5,0.3c-0.1,0.2-0.2,0.4-0.2,0.6c0,0.3,0.1,0.6,0.3,0.8c0.2,0.2,0.5,0.3,1,0.3c0.5,0,0.9-0.1,1.1-0.3
				c0.2-0.2,0.3-0.4,0.3-0.7c0-0.2-0.1-0.4-0.2-0.6C73.1,17.2,72.9,17,72.6,17z"/>
			<path d="M74.1,15.3l-4,0l0-3.1l0.7,0l0,2.3l0.9,0l0-2.1l0.7,0l0,2.1l1.1,0l0-2.4l0.7,0L74.1,15.3z"/>
			<path d="M72.8,11.4l-0.1-0.8c0.3,0,0.5-0.1,0.6-0.3c0.1-0.2,0.2-0.4,0.2-0.6c0-0.3-0.1-0.5-0.2-0.6c-0.1-0.1-0.2-0.2-0.4-0.2
				c-0.1,0-0.2,0-0.2,0.1c-0.1,0.1-0.1,0.2-0.2,0.3c0,0.1-0.1,0.3-0.2,0.7c-0.1,0.5-0.2,0.8-0.4,1c-0.2,0.3-0.5,0.4-0.8,0.4
				c-0.2,0-0.4-0.1-0.6-0.2c-0.2-0.1-0.3-0.3-0.4-0.5c-0.1-0.2-0.1-0.5-0.1-0.8c0-0.5,0.1-0.9,0.3-1.2c0.2-0.3,0.5-0.4,0.9-0.4
				l0,0.9c-0.2,0-0.4,0.1-0.4,0.2c-0.1,0.1-0.1,0.3-0.1,0.5c0,0.2,0,0.4,0.1,0.6c0.1,0.1,0.1,0.1,0.2,0.1c0.1,0,0.2,0,0.2-0.1
				c0.1-0.1,0.2-0.4,0.3-0.8c0.1-0.4,0.2-0.7,0.3-0.9c0.1-0.2,0.2-0.4,0.4-0.5c0.2-0.1,0.4-0.2,0.6-0.2c0.2,0,0.4,0.1,0.6,0.2
				c0.2,0.1,0.3,0.3,0.4,0.6c0.1,0.2,0.1,0.6,0.1,0.9c0,0.5-0.1,0.9-0.4,1.2C73.6,11.2,73.2,11.3,72.8,11.4z"/>
		</g>
	</g>
	<path class="st4" d="M77.9,53.3c0-2.1,0-4.1,0-6.2c0-4.8,0.1-9.5,0.1-14.3c0-5.3,0.1-10.5,0.1-15.8c0-3.6,0-7.2,0.1-10.8
		c0-0.7,0.1-1.5-0.1-2.2c-0.3-0.9-1.1-1.4-2-1.4c-0.2,0-0.4,0-0.6,0c-2.4,0-4.9,0-7.3,0c-4.4,0-8.7,0-13.1,0c-5.3,0-10.6,0-15.8,0
		c-5.2,0-10.5,0-15.7,0c-4.2,0-8.4,0-12.6,0c-2.2,0-4.4,0-6.5,0c-0.1,0-0.2,0-0.3,0C2.9,2.7,2,3.6,2,4.8c0,0.7,0,1.4,0,2.2
		c0,3.9-0.1,7.8-0.1,11.6c0,5.3-0.1,10.6-0.1,16c0,4.6-0.1,9.2-0.1,13.7c0,2.6-0.1,5.3,0,7.9C2.4,64.8,6.5,73,12.3,79.3
		c6.4,6.9,14.8,11.3,23.2,15.2c1.1,0.5,2,1,3.1,1.4c0.6,0.3,1.7,0.3,2.3,0C43.1,95,45,94,47.1,93c4.2-2,8.4-4.3,12.3-7
		c3.7-2.6,7.1-5.6,9.9-9.1c2.7-3.4,4.9-7.1,6.4-11.1C77.2,61.8,78,57.6,77.9,53.3c0-0.4-0.7-0.4-0.7,0c0.2,8.8-3.5,17.3-9.1,24
		c-6,7.1-14.1,11.7-22.3,15.6c-1,0.5-2.1,1-3.1,1.4c-0.5,0.2-1,0.5-1.5,0.7c-0.5,0.2-0.9,0.4-1.4,0.4c-1,0-1.9-0.6-2.7-1
		c-1-0.5-2.1-1-3.1-1.4c-4.2-2-8.3-4.1-12.2-6.7c-3.8-2.5-7.3-5.4-10.2-8.9c-2.8-3.3-5.1-7-6.7-11C3.2,62.4,2.3,58,2.4,53.6
		c0-0.6,0-1.3,0-1.9c0-3.6,0-7.2,0.1-10.8c0-5.2,0.1-10.4,0.1-15.5c0-4.7,0.1-9.5,0.1-14.2c0-2.1-0.1-4.3,0-6.5
		c0-0.8,0.6-1.4,1.4-1.4c0.2,0,0.4,0,0.6,0c0.9,0,1.8,0,2.7,0c3.4,0,6.8,0,10.3,0c4.9,0,9.7,0,14.6,0c5.3,0,10.6,0,15.9,0
		c4.9,0,9.7,0,14.6,0c3.4,0,6.8,0,10.3,0c0.9,0,1.8,0,2.6,0c0.2,0,0.4,0,0.6,0c0.8,0,1.4,0.6,1.4,1.4c0.1,2.2,0,4.4,0,6.6
		c0,4.7-0.1,9.4-0.1,14.2c0,5.2-0.1,10.4-0.1,15.6c0,3.5,0,7.1-0.1,10.6c0,0.5,0,1,0,1.5C77.2,53.7,77.9,53.7,77.9,53.3z"/>
</g>
<g>
	<line class="st2" x1="93.2" y1="54.1" x2="265.2" y2="54.1"/>
	<path class="st5" d="M93.2,54.1c7.2-0.2,14.3-0.3,21.5-0.5l21.5-0.3c14.3-0.2,28.7-0.1,43-0.2c14.3,0.1,28.7,0.1,43,0.2l21.5,0.3
		c7.2,0.2,14.3,0.3,21.5,0.5c-7.2,0.2-14.3,0.3-21.5,0.5l-21.5,0.3c-14.3,0.2-28.7,0.2-43,0.2c-14.3-0.1-28.7-0.1-43-0.2l-21.5-0.3
		C107.5,54.4,100.4,54.3,93.2,54.1z"/>
</g>
</svg>
